0
SECTION
2
HEADER
9
$INSUNITS
70
4
0
ENDSEC
0
SECTION
2
TABLES
0
TABLE
2
LTYPE
0
LTYPE
72
65
70
64
2
CONTINUOUS
3
______
73
0
40
0
0
ENDTAB
0
TABLE
2
LAYER
0
ENDTAB
0
ENDSEC
0
SECTION
2
ENTITIES
0
LINE
8
0
10
3.025
20
-2.525
11
16.025
21
-2.525
0
LINE
8
0
10
3.025
20
-16.525
11
16.025
21
-16.525
0
LINE
8
0
10
2.525
20
-3.025
11
2.525
21
-16.025
0
LINE
8
0
10
16.525
20
-3.025
11
16.525
21
-16.025
0
ARC
8
0
10
3.025
20
-3.025
40
0.5
50
90
51
180
0
ARC
8
0
10
16.025
20
-3.025
40
0.5
50
0
51
90
0
ARC
8
0
10
3.025
20
-16.025
40
0.5
50
180
51
270
0
ARC
8
0
10
16.025
20
-16.025
40
0.5
50
270
51
0
0
LINE
8
0
10
22.075
20
-2.525
11
35.075
21
-2.525
0
LINE
8
0
10
22.075
20
-16.525
11
35.075
21
-16.525
0
LINE
8
0
10
21.575
20
-3.025
11
21.575
21
-16.025
0
LINE
8
0
10
35.575
20
-3.025
11
35.575
21
-16.025
0
ARC
8
0
10
22.075
20
-3.025
40
0.5
50
90
51
180
0
ARC
8
0
10
35.075
20
-3.025
40
0.5
50
0
51
90
0
ARC
8
0
10
22.075
20
-16.025
40
0.5
50
180
51
270
0
ARC
8
0
10
35.075
20
-16.025
40
0.5
50
270
51
0
0
LINE
8
0
10
41.125
20
-2.525
11
54.125
21
-2.525
0
LINE
8
0
10
41.125
20
-16.525
11
54.125
21
-16.525
0
LINE
8
0
10
40.625
20
-3.025
11
40.625
21
-16.025
0
LINE
8
0
10
54.625
20
-3.025
11
54.625
21
-16.025
0
ARC
8
0
10
41.125
20
-3.025
40
0.5
50
90
51
180
0
ARC
8
0
10
54.125
20
-3.025
40
0.5
50
0
51
90
0
ARC
8
0
10
41.125
20
-16.025
40
0.5
50
180
51
270
0
ARC
8
0
10
54.125
20
-16.025
40
0.5
50
270
51
0
0
LINE
8
0
10
60.175
20
-2.525
11
73.175
21
-2.525
0
LINE
8
0
10
60.175
20
-16.525
11
73.175
21
-16.525
0
LINE
8
0
10
59.675
20
-3.025
11
59.675
21
-16.025
0
LINE
8
0
10
73.675
20
-3.025
11
73.675
21
-16.025
0
ARC
8
0
10
60.175
20
-3.025
40
0.5
50
90
51
180
0
ARC
8
0
10
73.175
20
-3.025
40
0.5
50
0
51
90
0
ARC
8
0
10
60.175
20
-16.025
40
0.5
50
180
51
270
0
ARC
8
0
10
73.175
20
-16.025
40
0.5
50
270
51
0
0
LINE
8
0
10
79.225
20
-2.525
11
92.225
21
-2.525
0
LINE
8
0
10
79.225
20
-16.525
11
92.225
21
-16.525
0
LINE
8
0
10
78.725
20
-3.025
11
78.725
21
-16.025
0
LINE
8
0
10
92.725
20
-3.025
11
92.725
21
-16.025
0
ARC
8
0
10
79.225
20
-3.025
40
0.5
50
90
51
180
0
ARC
8
0
10
92.225
20
-3.025
40
0.5
50
0
51
90
0
ARC
8
0
10
79.225
20
-16.025
40
0.5
50
180
51
270
0
ARC
8
0
10
92.225
20
-16.025
40
0.5
50
270
51
0
0
LINE
8
0
10
98.275
20
-2.525
11
111.275
21
-2.525
0
LINE
8
0
10
98.275
20
-16.525
11
111.275
21
-16.525
0
LINE
8
0
10
97.775
20
-3.025
11
97.775
21
-16.025
0
LINE
8
0
10
111.775
20
-3.025
11
111.775
21
-16.025
0
ARC
8
0
10
98.275
20
-3.025
40
0.5
50
90
51
180
0
ARC
8
0
10
111.275
20
-3.025
40
0.5
50
0
51
90
0
ARC
8
0
10
98.275
20
-16.025
40
0.5
50
180
51
270
0
ARC
8
0
10
111.275
20
-16.025
40
0.5
50
270
51
0
0
LINE
8
0
10
117.325
20
-2.525
11
130.325
21
-2.525
0
LINE
8
0
10
117.325
20
-16.525
11
130.325
21
-16.525
0
LINE
8
0
10
116.825
20
-3.025
11
116.825
21
-16.025
0
LINE
8
0
10
130.825
20
-3.025
11
130.825
21
-16.025
0
ARC
8
0
10
117.325
20
-3.025
40
0.5
50
90
51
180
0
ARC
8
0
10
130.325
20
-3.025
40
0.5
50
0
51
90
0
ARC
8
0
10
117.325
20
-16.025
40
0.5
50
180
51
270
0
ARC
8
0
10
130.325
20
-16.025
40
0.5
50
270
51
0
0
LINE
8
0
10
136.375
20
-2.525
11
149.375
21
-2.525
0
LINE
8
0
10
136.375
20
-16.525
11
149.375
21
-16.525
0
LINE
8
0
10
135.875
20
-3.025
11
135.875
21
-16.025
0
LINE
8
0
10
149.875
20
-3.025
11
149.875
21
-16.025
0
ARC
8
0
10
136.375
20
-3.025
40
0.5
50
90
51
180
0
ARC
8
0
10
149.375
20
-3.025
40
0.5
50
0
51
90
0
ARC
8
0
10
136.375
20
-16.025
40
0.5
50
180
51
270
0
ARC
8
0
10
149.375
20
-16.025
40
0.5
50
270
51
0
0
LINE
8
0
10
155.425
20
-2.525
11
168.425
21
-2.525
0
LINE
8
0
10
155.425
20
-16.525
11
168.425
21
-16.525
0
LINE
8
0
10
154.925
20
-3.025
11
154.925
21
-16.025
0
LINE
8
0
10
168.925
20
-3.025
11
168.925
21
-16.025
0
ARC
8
0
10
155.425
20
-3.025
40
0.5
50
90
51
180
0
ARC
8
0
10
168.425
20
-3.025
40
0.5
50
0
51
90
0
ARC
8
0
10
155.425
20
-16.025
40
0.5
50
180
51
270
0
ARC
8
0
10
168.425
20
-16.025
40
0.5
50
270
51
0
0
LINE
8
0
10
174.475
20
-2.525
11
187.475
21
-2.525
0
LINE
8
0
10
174.475
20
-16.525
11
187.475
21
-16.525
0
LINE
8
0
10
173.975
20
-3.025
11
173.975
21
-16.025
0
LINE
8
0
10
187.975
20
-3.025
11
187.975
21
-16.025
0
ARC
8
0
10
174.475
20
-3.025
40
0.5
50
90
51
180
0
ARC
8
0
10
187.475
20
-3.025
40
0.5
50
0
51
90
0
ARC
8
0
10
174.475
20
-16.025
40
0.5
50
180
51
270
0
ARC
8
0
10
187.475
20
-16.025
40
0.5
50
270
51
0
0
LINE
8
0
10
193.525
20
-2.525
11
206.525
21
-2.525
0
LINE
8
0
10
193.525
20
-16.525
11
206.525
21
-16.525
0
LINE
8
0
10
193.025
20
-3.025
11
193.025
21
-16.025
0
LINE
8
0
10
207.025
20
-3.025
11
207.025
21
-16.025
0
ARC
8
0
10
193.525
20
-3.025
40
0.5
50
90
51
180
0
ARC
8
0
10
206.525
20
-3.025
40
0.5
50
0
51
90
0
ARC
8
0
10
193.525
20
-16.025
40
0.5
50
180
51
270
0
ARC
8
0
10
206.525
20
-16.025
40
0.5
50
270
51
0
0
LINE
8
0
10
212.575
20
-2.525
11
225.575
21
-2.525
0
LINE
8
0
10
212.575
20
-16.525
11
225.575
21
-16.525
0
LINE
8
0
10
212.075
20
-3.025
11
212.075
21
-16.025
0
LINE
8
0
10
226.075
20
-3.025
11
226.075
21
-16.025
0
ARC
8
0
10
212.575
20
-3.025
40
0.5
50
90
51
180
0
ARC
8
0
10
225.575
20
-3.025
40
0.5
50
0
51
90
0
ARC
8
0
10
212.575
20
-16.025
40
0.5
50
180
51
270
0
ARC
8
0
10
225.575
20
-16.025
40
0.5
50
270
51
0
0
LINE
8
0
10
231.625
20
-2.525
11
244.625
21
-2.525
0
LINE
8
0
10
231.625
20
-16.525
11
244.625
21
-16.525
0
LINE
8
0
10
231.125
20
-3.025
11
231.125
21
-16.025
0
LINE
8
0
10
245.125
20
-3.025
11
245.125
21
-16.025
0
ARC
8
0
10
231.625
20
-3.025
40
0.5
50
90
51
180
0
ARC
8
0
10
244.625
20
-3.025
40
0.5
50
0
51
90
0
ARC
8
0
10
231.625
20
-16.025
40
0.5
50
180
51
270
0
ARC
8
0
10
244.625
20
-16.025
40
0.5
50
270
51
0
0
LINE
8
0
10
250.675
20
-2.525
11
263.675
21
-2.525
0
LINE
8
0
10
250.675
20
-16.525
11
263.675
21
-16.525
0
LINE
8
0
10
250.175
20
-3.025
11
250.175
21
-16.025
0
LINE
8
0
10
264.175
20
-3.025
11
264.175
21
-16.025
0
ARC
8
0
10
250.675
20
-3.025
40
0.5
50
90
51
180
0
ARC
8
0
10
263.675
20
-3.025
40
0.5
50
0
51
90
0
ARC
8
0
10
250.675
20
-16.025
40
0.5
50
180
51
270
0
ARC
8
0
10
263.675
20
-16.025
40
0.5
50
270
51
0
0
LINE
8
0
10
269.725
20
-2.525
11
282.725
21
-2.525
0
LINE
8
0
10
269.725
20
-16.525
11
282.725
21
-16.525
0
LINE
8
0
10
269.225
20
-3.025
11
269.225
21
-16.025
0
LINE
8
0
10
283.225
20
-3.025
11
283.225
21
-16.025
0
ARC
8
0
10
269.725
20
-3.025
40
0.5
50
90
51
180
0
ARC
8
0
10
282.725
20
-3.025
40
0.5
50
0
51
90
0
ARC
8
0
10
269.725
20
-16.025
40
0.5
50
180
51
270
0
ARC
8
0
10
282.725
20
-16.025
40
0.5
50
270
51
0
0
LINE
8
0
10
7.7875
20
-21.575
11
20.7875
21
-21.575
0
LINE
8
0
10
7.7875
20
-35.575
11
20.7875
21
-35.575
0
LINE
8
0
10
7.2875
20
-22.075
11
7.2875
21
-35.075
0
LINE
8
0
10
21.2875
20
-22.075
11
21.2875
21
-35.075
0
ARC
8
0
10
7.7875
20
-22.075
40
0.5
50
90
51
180
0
ARC
8
0
10
20.7875
20
-22.075
40
0.5
50
0
51
90
0
ARC
8
0
10
7.7875
20
-35.075
40
0.5
50
180
51
270
0
ARC
8
0
10
20.7875
20
-35.075
40
0.5
50
270
51
0
0
LINE
8
0
10
31.6
20
-21.575
11
44.6
21
-21.575
0
LINE
8
0
10
31.6
20
-35.575
11
44.6
21
-35.575
0
LINE
8
0
10
31.1
20
-22.075
11
31.1
21
-35.075
0
LINE
8
0
10
45.1
20
-22.075
11
45.1
21
-35.075
0
ARC
8
0
10
31.6
20
-22.075
40
0.5
50
90
51
180
0
ARC
8
0
10
44.6
20
-22.075
40
0.5
50
0
51
90
0
ARC
8
0
10
31.6
20
-35.075
40
0.5
50
180
51
270
0
ARC
8
0
10
44.6
20
-35.075
40
0.5
50
270
51
0
0
LINE
8
0
10
50.65
20
-21.575
11
63.65
21
-21.575
0
LINE
8
0
10
50.65
20
-35.575
11
63.65
21
-35.575
0
LINE
8
0
10
50.15
20
-22.075
11
50.15
21
-35.075
0
LINE
8
0
10
64.15
20
-22.075
11
64.15
21
-35.075
0
ARC
8
0
10
50.65
20
-22.075
40
0.5
50
90
51
180
0
ARC
8
0
10
63.65
20
-22.075
40
0.5
50
0
51
90
0
ARC
8
0
10
50.65
20
-35.075
40
0.5
50
180
51
270
0
ARC
8
0
10
63.65
20
-35.075
40
0.5
50
270
51
0
0
LINE
8
0
10
69.7
20
-21.575
11
82.7
21
-21.575
0
LINE
8
0
10
69.7
20
-35.575
11
82.7
21
-35.575
0
LINE
8
0
10
69.2
20
-22.075
11
69.2
21
-35.075
0
LINE
8
0
10
83.2
20
-22.075
11
83.2
21
-35.075
0
ARC
8
0
10
69.7
20
-22.075
40
0.5
50
90
51
180
0
ARC
8
0
10
82.7
20
-22.075
40
0.5
50
0
51
90
0
ARC
8
0
10
69.7
20
-35.075
40
0.5
50
180
51
270
0
ARC
8
0
10
82.7
20
-35.075
40
0.5
50
270
51
0
0
LINE
8
0
10
88.75
20
-21.575
11
101.75
21
-21.575
0
LINE
8
0
10
88.75
20
-35.575
11
101.75
21
-35.575
0
LINE
8
0
10
88.25
20
-22.075
11
88.25
21
-35.075
0
LINE
8
0
10
102.25
20
-22.075
11
102.25
21
-35.075
0
ARC
8
0
10
88.75
20
-22.075
40
0.5
50
90
51
180
0
ARC
8
0
10
101.75
20
-22.075
40
0.5
50
0
51
90
0
ARC
8
0
10
88.75
20
-35.075
40
0.5
50
180
51
270
0
ARC
8
0
10
101.75
20
-35.075
40
0.5
50
270
51
0
0
LINE
8
0
10
107.8
20
-21.575
11
120.8
21
-21.575
0
LINE
8
0
10
107.8
20
-35.575
11
120.8
21
-35.575
0
LINE
8
0
10
107.3
20
-22.075
11
107.3
21
-35.075
0
LINE
8
0
10
121.3
20
-22.075
11
121.3
21
-35.075
0
ARC
8
0
10
107.8
20
-22.075
40
0.5
50
90
51
180
0
ARC
8
0
10
120.8
20
-22.075
40
0.5
50
0
51
90
0
ARC
8
0
10
107.8
20
-35.075
40
0.5
50
180
51
270
0
ARC
8
0
10
120.8
20
-35.075
40
0.5
50
270
51
0
0
LINE
8
0
10
126.85
20
-21.575
11
139.85
21
-21.575
0
LINE
8
0
10
126.85
20
-35.575
11
139.85
21
-35.575
0
LINE
8
0
10
126.35
20
-22.075
11
126.35
21
-35.075
0
LINE
8
0
10
140.35
20
-22.075
11
140.35
21
-35.075
0
ARC
8
0
10
126.85
20
-22.075
40
0.5
50
90
51
180
0
ARC
8
0
10
139.85
20
-22.075
40
0.5
50
0
51
90
0
ARC
8
0
10
126.85
20
-35.075
40
0.5
50
180
51
270
0
ARC
8
0
10
139.85
20
-35.075
40
0.5
50
270
51
0
0
LINE
8
0
10
145.9
20
-21.575
11
158.9
21
-21.575
0
LINE
8
0
10
145.9
20
-35.575
11
158.9
21
-35.575
0
LINE
8
0
10
145.4
20
-22.075
11
145.4
21
-35.075
0
LINE
8
0
10
159.4
20
-22.075
11
159.4
21
-35.075
0
ARC
8
0
10
145.9
20
-22.075
40
0.5
50
90
51
180
0
ARC
8
0
10
158.9
20
-22.075
40
0.5
50
0
51
90
0
ARC
8
0
10
145.9
20
-35.075
40
0.5
50
180
51
270
0
ARC
8
0
10
158.9
20
-35.075
40
0.5
50
270
51
0
0
LINE
8
0
10
164.95
20
-21.575
11
177.95
21
-21.575
0
LINE
8
0
10
164.95
20
-35.575
11
177.95
21
-35.575
0
LINE
8
0
10
164.45
20
-22.075
11
164.45
21
-35.075
0
LINE
8
0
10
178.45
20
-22.075
11
178.45
21
-35.075
0
ARC
8
0
10
164.95
20
-22.075
40
0.5
50
90
51
180
0
ARC
8
0
10
177.95
20
-22.075
40
0.5
50
0
51
90
0
ARC
8
0
10
164.95
20
-35.075
40
0.5
50
180
51
270
0
ARC
8
0
10
177.95
20
-35.075
40
0.5
50
270
51
0
0
LINE
8
0
10
184
20
-21.575
11
197
21
-21.575
0
LINE
8
0
10
184
20
-35.575
11
197
21
-35.575
0
LINE
8
0
10
183.5
20
-22.075
11
183.5
21
-35.075
0
LINE
8
0
10
197.5
20
-22.075
11
197.5
21
-35.075
0
ARC
8
0
10
184
20
-22.075
40
0.5
50
90
51
180
0
ARC
8
0
10
197
20
-22.075
40
0.5
50
0
51
90
0
ARC
8
0
10
184
20
-35.075
40
0.5
50
180
51
270
0
ARC
8
0
10
197
20
-35.075
40
0.5
50
270
51
0
0
LINE
8
0
10
203.05
20
-21.575
11
216.05
21
-21.575
0
LINE
8
0
10
203.05
20
-35.575
11
216.05
21
-35.575
0
LINE
8
0
10
202.55
20
-22.075
11
202.55
21
-35.075
0
LINE
8
0
10
216.55
20
-22.075
11
216.55
21
-35.075
0
ARC
8
0
10
203.05
20
-22.075
40
0.5
50
90
51
180
0
ARC
8
0
10
216.05
20
-22.075
40
0.5
50
0
51
90
0
ARC
8
0
10
203.05
20
-35.075
40
0.5
50
180
51
270
0
ARC
8
0
10
216.05
20
-35.075
40
0.5
50
270
51
0
0
LINE
8
0
10
222.1
20
-21.575
11
235.1
21
-21.575
0
LINE
8
0
10
222.1
20
-35.575
11
235.1
21
-35.575
0
LINE
8
0
10
221.6
20
-22.075
11
221.6
21
-35.075
0
LINE
8
0
10
235.6
20
-22.075
11
235.6
21
-35.075
0
ARC
8
0
10
222.1
20
-22.075
40
0.5
50
90
51
180
0
ARC
8
0
10
235.1
20
-22.075
40
0.5
50
0
51
90
0
ARC
8
0
10
222.1
20
-35.075
40
0.5
50
180
51
270
0
ARC
8
0
10
235.1
20
-35.075
40
0.5
50
270
51
0
0
LINE
8
0
10
241.15
20
-21.575
11
254.15
21
-21.575
0
LINE
8
0
10
241.15
20
-35.575
11
254.15
21
-35.575
0
LINE
8
0
10
240.65
20
-22.075
11
240.65
21
-35.075
0
LINE
8
0
10
254.65
20
-22.075
11
254.65
21
-35.075
0
ARC
8
0
10
241.15
20
-22.075
40
0.5
50
90
51
180
0
ARC
8
0
10
254.15
20
-22.075
40
0.5
50
0
51
90
0
ARC
8
0
10
241.15
20
-35.075
40
0.5
50
180
51
270
0
ARC
8
0
10
254.15
20
-35.075
40
0.5
50
270
51
0
0
LINE
8
0
10
280.84375
20
-31.6
11
280.84375
21
-44.6
0
LINE
8
0
10
266.84375
20
-31.6
11
266.84375
21
-44.6
0
LINE
8
0
10
280.34375
20
-31.1
11
267.34375
21
-31.1
0
LINE
8
0
10
280.34375
20
-45.1
11
267.34375
21
-45.1
0
ARC
8
0
10
280.34375
20
-31.6
40
0.5
50
0
51
90
0
ARC
8
0
10
280.34375
20
-44.6
40
0.5
50
270
51
0
0
ARC
8
0
10
267.34375
20
-31.6
40
0.5
50
90
51
180
0
ARC
8
0
10
267.34375
20
-44.6
40
0.5
50
180
51
270
0
LINE
8
0
10
279.53335
20
-23.3346
11
279.53335
21
-28.9894
0
LINE
8
0
10
279.03335
20
-29.4894
11
278.72055
21
-29.4894
0
LINE
8
0
10
278.72055
20
-29.4894
11
278.72055
21
-38.1
0
LINE
8
0
10
268.02715
20
-38.1
11
268.02715
21
-29.9894
0
LINE
8
0
10
267.52715
20
-29.4894
11
267.23975
21
-29.4894
0
LINE
8
0
10
267.23975
20
-29.4894
11
267.23975
21
-28.186
0
LINE
8
0
10
266.73975
20
-27.686
11
266.57135
21
-27.686
0
LINE
8
0
10
266.07135
20
-27.186
11
266.07135
21
-25.138
0
LINE
8
0
10
266.57135
20
-24.638
11
266.73975
21
-24.638
0
LINE
8
0
10
267.23975
20
-24.138
11
267.23975
21
-23.3346
0
LINE
8
0
10
267.73975
20
-22.8346
11
272.83575
21
-22.8346
0
LINE
8
0
10
273.33575
20
-22.3346
11
273.33575
21
-21.971
0
LINE
8
0
10
273.33575
20
-21.971
11
275.62975
21
-21.971
0
LINE
8
0
10
276.12975
20
-22.471
11
276.12975
21
-22.8346
0
LINE
8
0
10
276.12975
20
-22.8346
11
279.03335
21
-22.8346
0
ARC
8
0
10
279.03335
20
-28.9894
40
0.5
50
270
51
0
0
ARC
8
0
10
267.52715
20
-29.9894
40
0.5
50
0
51
90
0
ARC
8
0
10
266.73975
20
-28.186
40
0.5
50
0
51
90
0
ARC
8
0
10
266.57135
20
-27.186
40
0.5
50
180
51
270
0
ARC
8
0
10
266.57135
20
-25.138
40
0.5
50
90
51
180
0
ARC
8
0
10
266.73975
20
-24.138
40
0.5
50
270
51
0
0
ARC
8
0
10
267.73975
20
-23.3346
40
0.5
50
90
51
180
0
ARC
8
0
10
272.83575
20
-22.3346
40
0.5
50
270
51
0
0
ARC
8
0
10
275.62975
20
-22.471
40
0.5
50
0
51
90
0
ARC
8
0
10
279.03335
20
-23.3346
40
0.5
50
0
51
90
0
LINE
8
0
10
279.53335
20
-52.8654
11
279.53335
21
-47.2106
0
LINE
8
0
10
279.03335
20
-46.7106
11
278.72055
21
-46.7106
0
LINE
8
0
10
278.72055
20
-46.7106
11
278.72055
21
-38.1
0
LINE
8
0
10
268.02715
20
-38.1
11
268.02715
21
-46.2106
0
LINE
8
0
10
267.52715
20
-46.7106
11
267.23975
21
-46.7106
0
LINE
8
0
10
267.23975
20
-46.7106
11
267.23975
21
-48.014
0
LINE
8
0
10
266.73975
20
-48.514
11
266.57135
21
-48.514
0
LINE
8
0
10
266.07135
20
-49.014
11
266.07135
21
-51.062
0
LINE
8
0
10
266.57135
20
-51.562
11
266.73975
21
-51.562
0
LINE
8
0
10
267.23975
20
-52.062
11
267.23975
21
-52.8654
0
LINE
8
0
10
267.73975
20
-53.3654
11
272.83575
21
-53.3654
0
LINE
8
0
10
273.33575
20
-53.8654
11
273.33575
21
-54.229
0
LINE
8
0
10
273.33575
20
-54.229
11
275.62975
21
-54.229
0
LINE
8
0
10
276.12975
20
-53.729
11
276.12975
21
-53.3654
0
LINE
8
0
10
276.12975
20
-53.3654
11
279.03335
21
-53.3654
0
ARC
8
0
10
279.03335
20
-47.2106
40
0.5
50
0
51
90
0
ARC
8
0
10
267.52715
20
-46.2106
40
0.5
50
270
51
0
0
ARC
8
0
10
266.73975
20
-48.014
40
0.5
50
270
51
0
0
ARC
8
0
10
266.57135
20
-49.014
40
0.5
50
90
51
180
0
ARC
8
0
10
266.57135
20
-51.062
40
0.5
50
180
51
270
0
ARC
8
0
10
266.73975
20
-52.062
40
0.5
50
0
51
90
0
ARC
8
0
10
267.73975
20
-52.8654
40
0.5
50
180
51
270
0
ARC
8
0
10
272.83575
20
-53.8654
40
0.5
50
0
51
90
0
ARC
8
0
10
275.62975
20
-53.729
40
0.5
50
270
51
0
0
ARC
8
0
10
279.03335
20
-52.8654
40
0.5
50
270
51
0
0
LINE
8
0
10
5.40625
20
-40.625
11
18.40625
21
-40.625
0
LINE
8
0
10
5.40625
20
-54.625
11
18.40625
21
-54.625
0
LINE
8
0
10
4.90625
20
-41.125
11
4.90625
21
-54.125
0
LINE
8
0
10
18.90625
20
-41.125
11
18.90625
21
-54.125
0
ARC
8
0
10
5.40625
20
-41.125
40
0.5
50
90
51
180
0
ARC
8
0
10
18.40625
20
-41.125
40
0.5
50
0
51
90
0
ARC
8
0
10
5.40625
20
-54.125
40
0.5
50
180
51
270
0
ARC
8
0
10
18.40625
20
-54.125
40
0.5
50
270
51
0
0
LINE
8
0
10
36.3625
20
-40.625
11
49.3625
21
-40.625
0
LINE
8
0
10
36.3625
20
-54.625
11
49.3625
21
-54.625
0
LINE
8
0
10
35.8625
20
-41.125
11
35.8625
21
-54.125
0
LINE
8
0
10
49.8625
20
-41.125
11
49.8625
21
-54.125
0
ARC
8
0
10
36.3625
20
-41.125
40
0.5
50
90
51
180
0
ARC
8
0
10
49.3625
20
-41.125
40
0.5
50
0
51
90
0
ARC
8
0
10
36.3625
20
-54.125
40
0.5
50
180
51
270
0
ARC
8
0
10
49.3625
20
-54.125
40
0.5
50
270
51
0
0
LINE
8
0
10
55.4125
20
-40.625
11
68.4125
21
-40.625
0
LINE
8
0
10
55.4125
20
-54.625
11
68.4125
21
-54.625
0
LINE
8
0
10
54.9125
20
-41.125
11
54.9125
21
-54.125
0
LINE
8
0
10
68.9125
20
-41.125
11
68.9125
21
-54.125
0
ARC
8
0
10
55.4125
20
-41.125
40
0.5
50
90
51
180
0
ARC
8
0
10
68.4125
20
-41.125
40
0.5
50
0
51
90
0
ARC
8
0
10
55.4125
20
-54.125
40
0.5
50
180
51
270
0
ARC
8
0
10
68.4125
20
-54.125
40
0.5
50
270
51
0
0
LINE
8
0
10
74.4625
20
-40.625
11
87.4625
21
-40.625
0
LINE
8
0
10
74.4625
20
-54.625
11
87.4625
21
-54.625
0
LINE
8
0
10
73.9625
20
-41.125
11
73.9625
21
-54.125
0
LINE
8
0
10
87.9625
20
-41.125
11
87.9625
21
-54.125
0
ARC
8
0
10
74.4625
20
-41.125
40
0.5
50
90
51
180
0
ARC
8
0
10
87.4625
20
-41.125
40
0.5
50
0
51
90
0
ARC
8
0
10
74.4625
20
-54.125
40
0.5
50
180
51
270
0
ARC
8
0
10
87.4625
20
-54.125
40
0.5
50
270
51
0
0
LINE
8
0
10
93.5125
20
-40.625
11
106.5125
21
-40.625
0
LINE
8
0
10
93.5125
20
-54.625
11
106.5125
21
-54.625
0
LINE
8
0
10
93.0125
20
-41.125
11
93.0125
21
-54.125
0
LINE
8
0
10
107.0125
20
-41.125
11
107.0125
21
-54.125
0
ARC
8
0
10
93.5125
20
-41.125
40
0.5
50
90
51
180
0
ARC
8
0
10
106.5125
20
-41.125
40
0.5
50
0
51
90
0
ARC
8
0
10
93.5125
20
-54.125
40
0.5
50
180
51
270
0
ARC
8
0
10
106.5125
20
-54.125
40
0.5
50
270
51
0
0
LINE
8
0
10
112.5625
20
-40.625
11
125.5625
21
-40.625
0
LINE
8
0
10
112.5625
20
-54.625
11
125.5625
21
-54.625
0
LINE
8
0
10
112.0625
20
-41.125
11
112.0625
21
-54.125
0
LINE
8
0
10
126.0625
20
-41.125
11
126.0625
21
-54.125
0
ARC
8
0
10
112.5625
20
-41.125
40
0.5
50
90
51
180
0
ARC
8
0
10
125.5625
20
-41.125
40
0.5
50
0
51
90
0
ARC
8
0
10
112.5625
20
-54.125
40
0.5
50
180
51
270
0
ARC
8
0
10
125.5625
20
-54.125
40
0.5
50
270
51
0
0
LINE
8
0
10
131.6125
20
-40.625
11
144.6125
21
-40.625
0
LINE
8
0
10
131.6125
20
-54.625
11
144.6125
21
-54.625
0
LINE
8
0
10
131.1125
20
-41.125
11
131.1125
21
-54.125
0
LINE
8
0
10
145.1125
20
-41.125
11
145.1125
21
-54.125
0
ARC
8
0
10
131.6125
20
-41.125
40
0.5
50
90
51
180
0
ARC
8
0
10
144.6125
20
-41.125
40
0.5
50
0
51
90
0
ARC
8
0
10
131.6125
20
-54.125
40
0.5
50
180
51
270
0
ARC
8
0
10
144.6125
20
-54.125
40
0.5
50
270
51
0
0
LINE
8
0
10
150.6625
20
-40.625
11
163.6625
21
-40.625
0
LINE
8
0
10
150.6625
20
-54.625
11
163.6625
21
-54.625
0
LINE
8
0
10
150.1625
20
-41.125
11
150.1625
21
-54.125
0
LINE
8
0
10
164.1625
20
-41.125
11
164.1625
21
-54.125
0
ARC
8
0
10
150.6625
20
-41.125
40
0.5
50
90
51
180
0
ARC
8
0
10
163.6625
20
-41.125
40
0.5
50
0
51
90
0
ARC
8
0
10
150.6625
20
-54.125
40
0.5
50
180
51
270
0
ARC
8
0
10
163.6625
20
-54.125
40
0.5
50
270
51
0
0
LINE
8
0
10
169.7125
20
-40.625
11
182.7125
21
-40.625
0
LINE
8
0
10
169.7125
20
-54.625
11
182.7125
21
-54.625
0
LINE
8
0
10
169.2125
20
-41.125
11
169.2125
21
-54.125
0
LINE
8
0
10
183.2125
20
-41.125
11
183.2125
21
-54.125
0
ARC
8
0
10
169.7125
20
-41.125
40
0.5
50
90
51
180
0
ARC
8
0
10
182.7125
20
-41.125
40
0.5
50
0
51
90
0
ARC
8
0
10
169.7125
20
-54.125
40
0.5
50
180
51
270
0
ARC
8
0
10
182.7125
20
-54.125
40
0.5
50
270
51
0
0
LINE
8
0
10
188.7625
20
-40.625
11
201.7625
21
-40.625
0
LINE
8
0
10
188.7625
20
-54.625
11
201.7625
21
-54.625
0
LINE
8
0
10
188.2625
20
-41.125
11
188.2625
21
-54.125
0
LINE
8
0
10
202.2625
20
-41.125
11
202.2625
21
-54.125
0
ARC
8
0
10
188.7625
20
-41.125
40
0.5
50
90
51
180
0
ARC
8
0
10
201.7625
20
-41.125
40
0.5
50
0
51
90
0
ARC
8
0
10
188.7625
20
-54.125
40
0.5
50
180
51
270
0
ARC
8
0
10
201.7625
20
-54.125
40
0.5
50
270
51
0
0
LINE
8
0
10
207.8125
20
-40.625
11
220.8125
21
-40.625
0
LINE
8
0
10
207.8125
20
-54.625
11
220.8125
21
-54.625
0
LINE
8
0
10
207.3125
20
-41.125
11
207.3125
21
-54.125
0
LINE
8
0
10
221.3125
20
-41.125
11
221.3125
21
-54.125
0
ARC
8
0
10
207.8125
20
-41.125
40
0.5
50
90
51
180
0
ARC
8
0
10
220.8125
20
-41.125
40
0.5
50
0
51
90
0
ARC
8
0
10
207.8125
20
-54.125
40
0.5
50
180
51
270
0
ARC
8
0
10
220.8125
20
-54.125
40
0.5
50
270
51
0
0
LINE
8
0
10
226.8625
20
-40.625
11
239.8625
21
-40.625
0
LINE
8
0
10
226.8625
20
-54.625
11
239.8625
21
-54.625
0
LINE
8
0
10
226.3625
20
-41.125
11
226.3625
21
-54.125
0
LINE
8
0
10
240.3625
20
-41.125
11
240.3625
21
-54.125
0
ARC
8
0
10
226.8625
20
-41.125
40
0.5
50
90
51
180
0
ARC
8
0
10
239.8625
20
-41.125
40
0.5
50
0
51
90
0
ARC
8
0
10
226.8625
20
-54.125
40
0.5
50
180
51
270
0
ARC
8
0
10
239.8625
20
-54.125
40
0.5
50
270
51
0
0
LINE
8
0
10
245.9125
20
-40.625
11
258.9125
21
-40.625
0
LINE
8
0
10
245.9125
20
-54.625
11
258.9125
21
-54.625
0
LINE
8
0
10
245.4125
20
-41.125
11
245.4125
21
-54.125
0
LINE
8
0
10
259.4125
20
-41.125
11
259.4125
21
-54.125
0
ARC
8
0
10
245.9125
20
-41.125
40
0.5
50
90
51
180
0
ARC
8
0
10
258.9125
20
-41.125
40
0.5
50
0
51
90
0
ARC
8
0
10
245.9125
20
-54.125
40
0.5
50
180
51
270
0
ARC
8
0
10
258.9125
20
-54.125
40
0.5
50
270
51
0
0
LINE
8
0
10
5.40625
20
-59.675
11
18.40625
21
-59.675
0
LINE
8
0
10
5.40625
20
-73.675
11
18.40625
21
-73.675
0
LINE
8
0
10
4.90625
20
-60.175
11
4.90625
21
-73.175
0
LINE
8
0
10
18.90625
20
-60.175
11
18.90625
21
-73.175
0
ARC
8
0
10
5.40625
20
-60.175
40
0.5
50
90
51
180
0
ARC
8
0
10
18.40625
20
-60.175
40
0.5
50
0
51
90
0
ARC
8
0
10
5.40625
20
-73.175
40
0.5
50
180
51
270
0
ARC
8
0
10
18.40625
20
-73.175
40
0.5
50
270
51
0
0
LINE
8
0
10
26.8375
20
-59.675
11
39.8375
21
-59.675
0
LINE
8
0
10
26.8375
20
-73.675
11
39.8375
21
-73.675
0
LINE
8
0
10
26.3375
20
-60.175
11
26.3375
21
-73.175
0
LINE
8
0
10
40.3375
20
-60.175
11
40.3375
21
-73.175
0
ARC
8
0
10
26.8375
20
-60.175
40
0.5
50
90
51
180
0
ARC
8
0
10
39.8375
20
-60.175
40
0.5
50
0
51
90
0
ARC
8
0
10
26.8375
20
-73.175
40
0.5
50
180
51
270
0
ARC
8
0
10
39.8375
20
-73.175
40
0.5
50
270
51
0
0
LINE
8
0
10
45.8875
20
-59.675
11
58.8875
21
-59.675
0
LINE
8
0
10
45.8875
20
-73.675
11
58.8875
21
-73.675
0
LINE
8
0
10
45.3875
20
-60.175
11
45.3875
21
-73.175
0
LINE
8
0
10
59.3875
20
-60.175
11
59.3875
21
-73.175
0
ARC
8
0
10
45.8875
20
-60.175
40
0.5
50
90
51
180
0
ARC
8
0
10
58.8875
20
-60.175
40
0.5
50
0
51
90
0
ARC
8
0
10
45.8875
20
-73.175
40
0.5
50
180
51
270
0
ARC
8
0
10
58.8875
20
-73.175
40
0.5
50
270
51
0
0
LINE
8
0
10
64.9375
20
-59.675
11
77.9375
21
-59.675
0
LINE
8
0
10
64.9375
20
-73.675
11
77.9375
21
-73.675
0
LINE
8
0
10
64.4375
20
-60.175
11
64.4375
21
-73.175
0
LINE
8
0
10
78.4375
20
-60.175
11
78.4375
21
-73.175
0
ARC
8
0
10
64.9375
20
-60.175
40
0.5
50
90
51
180
0
ARC
8
0
10
77.9375
20
-60.175
40
0.5
50
0
51
90
0
ARC
8
0
10
64.9375
20
-73.175
40
0.5
50
180
51
270
0
ARC
8
0
10
77.9375
20
-73.175
40
0.5
50
270
51
0
0
LINE
8
0
10
83.9875
20
-59.675
11
96.9875
21
-59.675
0
LINE
8
0
10
83.9875
20
-73.675
11
96.9875
21
-73.675
0
LINE
8
0
10
83.4875
20
-60.175
11
83.4875
21
-73.175
0
LINE
8
0
10
97.4875
20
-60.175
11
97.4875
21
-73.175
0
ARC
8
0
10
83.9875
20
-60.175
40
0.5
50
90
51
180
0
ARC
8
0
10
96.9875
20
-60.175
40
0.5
50
0
51
90
0
ARC
8
0
10
83.9875
20
-73.175
40
0.5
50
180
51
270
0
ARC
8
0
10
96.9875
20
-73.175
40
0.5
50
270
51
0
0
LINE
8
0
10
103.0375
20
-59.675
11
116.0375
21
-59.675
0
LINE
8
0
10
103.0375
20
-73.675
11
116.0375
21
-73.675
0
LINE
8
0
10
102.5375
20
-60.175
11
102.5375
21
-73.175
0
LINE
8
0
10
116.5375
20
-60.175
11
116.5375
21
-73.175
0
ARC
8
0
10
103.0375
20
-60.175
40
0.5
50
90
51
180
0
ARC
8
0
10
116.0375
20
-60.175
40
0.5
50
0
51
90
0
ARC
8
0
10
103.0375
20
-73.175
40
0.5
50
180
51
270
0
ARC
8
0
10
116.0375
20
-73.175
40
0.5
50
270
51
0
0
LINE
8
0
10
122.0875
20
-59.675
11
135.0875
21
-59.675
0
LINE
8
0
10
122.0875
20
-73.675
11
135.0875
21
-73.675
0
LINE
8
0
10
121.5875
20
-60.175
11
121.5875
21
-73.175
0
LINE
8
0
10
135.5875
20
-60.175
11
135.5875
21
-73.175
0
ARC
8
0
10
122.0875
20
-60.175
40
0.5
50
90
51
180
0
ARC
8
0
10
135.0875
20
-60.175
40
0.5
50
0
51
90
0
ARC
8
0
10
122.0875
20
-73.175
40
0.5
50
180
51
270
0
ARC
8
0
10
135.0875
20
-73.175
40
0.5
50
270
51
0
0
LINE
8
0
10
141.1375
20
-59.675
11
154.1375
21
-59.675
0
LINE
8
0
10
141.1375
20
-73.675
11
154.1375
21
-73.675
0
LINE
8
0
10
140.6375
20
-60.175
11
140.6375
21
-73.175
0
LINE
8
0
10
154.6375
20
-60.175
11
154.6375
21
-73.175
0
ARC
8
0
10
141.1375
20
-60.175
40
0.5
50
90
51
180
0
ARC
8
0
10
154.1375
20
-60.175
40
0.5
50
0
51
90
0
ARC
8
0
10
141.1375
20
-73.175
40
0.5
50
180
51
270
0
ARC
8
0
10
154.1375
20
-73.175
40
0.5
50
270
51
0
0
LINE
8
0
10
160.1875
20
-59.675
11
173.1875
21
-59.675
0
LINE
8
0
10
160.1875
20
-73.675
11
173.1875
21
-73.675
0
LINE
8
0
10
159.6875
20
-60.175
11
159.6875
21
-73.175
0
LINE
8
0
10
173.6875
20
-60.175
11
173.6875
21
-73.175
0
ARC
8
0
10
160.1875
20
-60.175
40
0.5
50
90
51
180
0
ARC
8
0
10
173.1875
20
-60.175
40
0.5
50
0
51
90
0
ARC
8
0
10
160.1875
20
-73.175
40
0.5
50
180
51
270
0
ARC
8
0
10
173.1875
20
-73.175
40
0.5
50
270
51
0
0
LINE
8
0
10
179.2375
20
-59.675
11
192.2375
21
-59.675
0
LINE
8
0
10
179.2375
20
-73.675
11
192.2375
21
-73.675
0
LINE
8
0
10
178.7375
20
-60.175
11
178.7375
21
-73.175
0
LINE
8
0
10
192.7375
20
-60.175
11
192.7375
21
-73.175
0
ARC
8
0
10
179.2375
20
-60.175
40
0.5
50
90
51
180
0
ARC
8
0
10
192.2375
20
-60.175
40
0.5
50
0
51
90
0
ARC
8
0
10
179.2375
20
-73.175
40
0.5
50
180
51
270
0
ARC
8
0
10
192.2375
20
-73.175
40
0.5
50
270
51
0
0
LINE
8
0
10
198.2875
20
-59.675
11
211.2875
21
-59.675
0
LINE
8
0
10
198.2875
20
-73.675
11
211.2875
21
-73.675
0
LINE
8
0
10
197.7875
20
-60.175
11
197.7875
21
-73.175
0
LINE
8
0
10
211.7875
20
-60.175
11
211.7875
21
-73.175
0
ARC
8
0
10
198.2875
20
-60.175
40
0.5
50
90
51
180
0
ARC
8
0
10
211.2875
20
-60.175
40
0.5
50
0
51
90
0
ARC
8
0
10
198.2875
20
-73.175
40
0.5
50
180
51
270
0
ARC
8
0
10
211.2875
20
-73.175
40
0.5
50
270
51
0
0
LINE
8
0
10
217.3375
20
-59.675
11
230.3375
21
-59.675
0
LINE
8
0
10
217.3375
20
-73.675
11
230.3375
21
-73.675
0
LINE
8
0
10
216.8375
20
-60.175
11
216.8375
21
-73.175
0
LINE
8
0
10
230.8375
20
-60.175
11
230.8375
21
-73.175
0
ARC
8
0
10
217.3375
20
-60.175
40
0.5
50
90
51
180
0
ARC
8
0
10
230.3375
20
-60.175
40
0.5
50
0
51
90
0
ARC
8
0
10
217.3375
20
-73.175
40
0.5
50
180
51
270
0
ARC
8
0
10
230.3375
20
-73.175
40
0.5
50
270
51
0
0
LINE
8
0
10
253.05625
20
-59.675
11
266.05625
21
-59.675
0
LINE
8
0
10
253.05625
20
-73.675
11
266.05625
21
-73.675
0
LINE
8
0
10
252.55625
20
-60.175
11
252.55625
21
-73.175
0
LINE
8
0
10
266.55625
20
-60.175
11
266.55625
21
-73.175
0
ARC
8
0
10
253.05625
20
-60.175
40
0.5
50
90
51
180
0
ARC
8
0
10
266.05625
20
-60.175
40
0.5
50
0
51
90
0
ARC
8
0
10
253.05625
20
-73.175
40
0.5
50
180
51
270
0
ARC
8
0
10
266.05625
20
-73.175
40
0.5
50
270
51
0
0
LINE
8
0
10
244.79085
20
-60.9854
11
250.44565
21
-60.9854
0
LINE
8
0
10
250.94565
20
-61.4854
11
250.94565
21
-61.7982
0
LINE
8
0
10
250.94565
20
-61.7982
11
259.55625
21
-61.7982
0
LINE
8
0
10
259.55625
20
-72.4916
11
251.44565
21
-72.4916
0
LINE
8
0
10
250.94565
20
-72.9916
11
250.94565
21
-73.279
0
LINE
8
0
10
250.94565
20
-73.279
11
249.64225
21
-73.279
0
LINE
8
0
10
249.14225
20
-73.779
11
249.14225
21
-73.9474
0
LINE
8
0
10
248.64225
20
-74.4474
11
246.59425
21
-74.4474
0
LINE
8
0
10
246.09425
20
-73.9474
11
246.09425
21
-73.779
0
LINE
8
0
10
245.59425
20
-73.279
11
244.79085
21
-73.279
0
LINE
8
0
10
244.29085
20
-72.779
11
244.29085
21
-67.683
0
LINE
8
0
10
243.79085
20
-67.183
11
243.42725
21
-67.183
0
LINE
8
0
10
243.42725
20
-67.183
11
243.42725
21
-64.889
0
LINE
8
0
10
243.92725
20
-64.389
11
244.29085
21
-64.389
0
LINE
8
0
10
244.29085
20
-64.389
11
244.29085
21
-61.4854
0
ARC
8
0
10
250.44565
20
-61.4854
40
0.5
50
0
51
90
0
ARC
8
0
10
251.44565
20
-72.9916
40
0.5
50
90
51
180
0
ARC
8
0
10
249.64225
20
-73.779
40
0.5
50
90
51
180
0
ARC
8
0
10
248.64225
20
-73.9474
40
0.5
50
270
51
0
0
ARC
8
0
10
246.59425
20
-73.9474
40
0.5
50
180
51
270
0
ARC
8
0
10
245.59425
20
-73.779
40
0.5
50
0
51
90
0
ARC
8
0
10
244.79085
20
-72.779
40
0.5
50
180
51
270
0
ARC
8
0
10
243.79085
20
-67.683
40
0.5
50
0
51
90
0
ARC
8
0
10
243.92725
20
-64.889
40
0.5
50
90
51
180
0
ARC
8
0
10
244.79085
20
-61.4854
40
0.5
50
90
51
180
0
LINE
8
0
10
274.32165
20
-60.9854
11
268.66685
21
-60.9854
0
LINE
8
0
10
268.16685
20
-61.4854
11
268.16685
21
-61.7982
0
LINE
8
0
10
268.16685
20
-61.7982
11
259.55625
21
-61.7982
0
LINE
8
0
10
259.55625
20
-72.4916
11
267.66685
21
-72.4916
0
LINE
8
0
10
268.16685
20
-72.9916
11
268.16685
21
-73.279
0
LINE
8
0
10
268.16685
20
-73.279
11
269.47025
21
-73.279
0
LINE
8
0
10
269.97025
20
-73.779
11
269.97025
21
-73.9474
0
LINE
8
0
10
270.47025
20
-74.4474
11
272.51825
21
-74.4474
0
LINE
8
0
10
273.01825
20
-73.9474
11
273.01825
21
-73.779
0
LINE
8
0
10
273.51825
20
-73.279
11
274.32165
21
-73.279
0
LINE
8
0
10
274.82165
20
-72.779
11
274.82165
21
-67.683
0
LINE
8
0
10
275.32165
20
-67.183
11
275.68525
21
-67.183
0
LINE
8
0
10
275.68525
20
-67.183
11
275.68525
21
-64.889
0
LINE
8
0
10
275.18525
20
-64.389
11
274.82165
21
-64.389
0
LINE
8
0
10
274.82165
20
-64.389
11
274.82165
21
-61.4854
0
ARC
8
0
10
268.66685
20
-61.4854
40
0.5
50
90
51
180
0
ARC
8
0
10
267.66685
20
-72.9916
40
0.5
50
0
51
90
0
ARC
8
0
10
269.47025
20
-73.779
40
0.5
50
0
51
90
0
ARC
8
0
10
270.47025
20
-73.9474
40
0.5
50
180
51
270
0
ARC
8
0
10
272.51825
20
-73.9474
40
0.5
50
270
51
0
0
ARC
8
0
10
273.51825
20
-73.779
40
0.5
50
90
51
180
0
ARC
8
0
10
274.32165
20
-72.779
40
0.5
50
270
51
0
0
ARC
8
0
10
275.32165
20
-67.683
40
0.5
50
90
51
180
0
ARC
8
0
10
275.18525
20
-64.889
40
0.5
50
0
51
90
0
ARC
8
0
10
274.32165
20
-61.4854
40
0.5
50
0
51
90
0
LINE
8
0
10
5.40625
20
-78.725
11
18.40625
21
-78.725
0
LINE
8
0
10
5.40625
20
-92.725
11
18.40625
21
-92.725
0
LINE
8
0
10
4.90625
20
-79.225
11
4.90625
21
-92.225
0
LINE
8
0
10
18.90625
20
-79.225
11
18.90625
21
-92.225
0
ARC
8
0
10
5.40625
20
-79.225
40
0.5
50
90
51
180
0
ARC
8
0
10
18.40625
20
-79.225
40
0.5
50
0
51
90
0
ARC
8
0
10
5.40625
20
-92.225
40
0.5
50
180
51
270
0
ARC
8
0
10
18.40625
20
-92.225
40
0.5
50
270
51
0
0
LINE
8
0
10
29.21875
20
-78.725
11
42.21875
21
-78.725
0
LINE
8
0
10
29.21875
20
-92.725
11
42.21875
21
-92.725
0
LINE
8
0
10
28.71875
20
-79.225
11
28.71875
21
-92.225
0
LINE
8
0
10
42.71875
20
-79.225
11
42.71875
21
-92.225
0
ARC
8
0
10
29.21875
20
-79.225
40
0.5
50
90
51
180
0
ARC
8
0
10
42.21875
20
-79.225
40
0.5
50
0
51
90
0
ARC
8
0
10
29.21875
20
-92.225
40
0.5
50
180
51
270
0
ARC
8
0
10
42.21875
20
-92.225
40
0.5
50
270
51
0
0
LINE
8
0
10
53.03125
20
-78.725
11
66.03125
21
-78.725
0
LINE
8
0
10
53.03125
20
-92.725
11
66.03125
21
-92.725
0
LINE
8
0
10
52.53125
20
-79.225
11
52.53125
21
-92.225
0
LINE
8
0
10
66.53125
20
-79.225
11
66.53125
21
-92.225
0
ARC
8
0
10
53.03125
20
-79.225
40
0.5
50
90
51
180
0
ARC
8
0
10
66.03125
20
-79.225
40
0.5
50
0
51
90
0
ARC
8
0
10
53.03125
20
-92.225
40
0.5
50
180
51
270
0
ARC
8
0
10
66.03125
20
-92.225
40
0.5
50
270
51
0
0
LINE
8
0
10
86.36875
20
-78.725
11
99.36875
21
-78.725
0
LINE
8
0
10
86.36875
20
-92.725
11
99.36875
21
-92.725
0
LINE
8
0
10
85.86875
20
-79.225
11
85.86875
21
-92.225
0
LINE
8
0
10
99.86875
20
-79.225
11
99.86875
21
-92.225
0
ARC
8
0
10
86.36875
20
-79.225
40
0.5
50
90
51
180
0
ARC
8
0
10
99.36875
20
-79.225
40
0.5
50
0
51
90
0
ARC
8
0
10
86.36875
20
-92.225
40
0.5
50
180
51
270
0
ARC
8
0
10
99.36875
20
-92.225
40
0.5
50
270
51
0
0
LINE
8
0
10
78.10335
20
-80.0354
11
83.75815
21
-80.0354
0
LINE
8
0
10
84.25815
20
-80.5354
11
84.25815
21
-80.8482
0
LINE
8
0
10
84.25815
20
-80.8482
11
92.86875
21
-80.8482
0
LINE
8
0
10
92.86875
20
-91.5416
11
84.75815
21
-91.5416
0
LINE
8
0
10
84.25815
20
-92.0416
11
84.25815
21
-92.329
0
LINE
8
0
10
84.25815
20
-92.329
11
82.95475
21
-92.329
0
LINE
8
0
10
82.45475
20
-92.829
11
82.45475
21
-92.9974
0
LINE
8
0
10
81.95475
20
-93.4974
11
79.90675
21
-93.4974
0
LINE
8
0
10
79.40675
20
-92.9974
11
79.40675
21
-92.829
0
LINE
8
0
10
78.90675
20
-92.329
11
78.10335
21
-92.329
0
LINE
8
0
10
77.60335
20
-91.829
11
77.60335
21
-86.733
0
LINE
8
0
10
77.10335
20
-86.233
11
76.73975
21
-86.233
0
LINE
8
0
10
76.73975
20
-86.233
11
76.73975
21
-83.939
0
LINE
8
0
10
77.23975
20
-83.439
11
77.60335
21
-83.439
0
LINE
8
0
10
77.60335
20
-83.439
11
77.60335
21
-80.5354
0
ARC
8
0
10
83.75815
20
-80.5354
40
0.5
50
0
51
90
0
ARC
8
0
10
84.75815
20
-92.0416
40
0.5
50
90
51
180
0
ARC
8
0
10
82.95475
20
-92.829
40
0.5
50
90
51
180
0
ARC
8
0
10
81.95475
20
-92.9974
40
0.5
50
270
51
0
0
ARC
8
0
10
79.90675
20
-92.9974
40
0.5
50
180
51
270
0
ARC
8
0
10
78.90675
20
-92.829
40
0.5
50
0
51
90
0
ARC
8
0
10
78.10335
20
-91.829
40
0.5
50
180
51
270
0
ARC
8
0
10
77.10335
20
-86.733
40
0.5
50
0
51
90
0
ARC
8
0
10
77.23975
20
-83.939
40
0.5
50
90
51
180
0
ARC
8
0
10
78.10335
20
-80.5354
40
0.5
50
90
51
180
0
LINE
8
0
10
107.63415
20
-80.0354
11
101.97935
21
-80.0354
0
LINE
8
0
10
101.47935
20
-80.5354
11
101.47935
21
-80.8482
0
LINE
8
0
10
101.47935
20
-80.8482
11
92.86875
21
-80.8482
0
LINE
8
0
10
92.86875
20
-91.5416
11
100.97935
21
-91.5416
0
LINE
8
0
10
101.47935
20
-92.0416
11
101.47935
21
-92.329
0
LINE
8
0
10
101.47935
20
-92.329
11
102.78275
21
-92.329
0
LINE
8
0
10
103.28275
20
-92.829
11
103.28275
21
-92.9974
0
LINE
8
0
10
103.78275
20
-93.4974
11
105.83075
21
-93.4974
0
LINE
8
0
10
106.33075
20
-92.9974
11
106.33075
21
-92.829
0
LINE
8
0
10
106.83075
20
-92.329
11
107.63415
21
-92.329
0
LINE
8
0
10
108.13415
20
-91.829
11
108.13415
21
-86.733
0
LINE
8
0
10
108.63415
20
-86.233
11
108.99775
21
-86.233
0
LINE
8
0
10
108.99775
20
-86.233
11
108.99775
21
-83.939
0
LINE
8
0
10
108.49775
20
-83.439
11
108.13415
21
-83.439
0
LINE
8
0
10
108.13415
20
-83.439
11
108.13415
21
-80.5354
0
ARC
8
0
10
101.97935
20
-80.5354
40
0.5
50
90
51
180
0
ARC
8
0
10
100.97935
20
-92.0416
40
0.5
50
0
51
90
0
ARC
8
0
10
102.78275
20
-92.829
40
0.5
50
0
51
90
0
ARC
8
0
10
103.78275
20
-92.9974
40
0.5
50
180
51
270
0
ARC
8
0
10
105.83075
20
-92.9974
40
0.5
50
270
51
0
0
ARC
8
0
10
106.83075
20
-92.829
40
0.5
50
90
51
180
0
ARC
8
0
10
107.63415
20
-91.829
40
0.5
50
270
51
0
0
ARC
8
0
10
108.63415
20
-86.733
40
0.5
50
90
51
180
0
ARC
8
0
10
108.49775
20
-83.939
40
0.5
50
0
51
90
0
ARC
8
0
10
107.63415
20
-80.5354
40
0.5
50
0
51
90
0
LINE
8
0
10
119.70625
20
-78.725
11
132.70625
21
-78.725
0
LINE
8
0
10
119.70625
20
-92.725
11
132.70625
21
-92.725
0
LINE
8
0
10
119.20625
20
-79.225
11
119.20625
21
-92.225
0
LINE
8
0
10
133.20625
20
-79.225
11
133.20625
21
-92.225
0
ARC
8
0
10
119.70625
20
-79.225
40
0.5
50
90
51
180
0
ARC
8
0
10
132.70625
20
-79.225
40
0.5
50
0
51
90
0
ARC
8
0
10
119.70625
20
-92.225
40
0.5
50
180
51
270
0
ARC
8
0
10
132.70625
20
-92.225
40
0.5
50
270
51
0
0
LINE
8
0
10
157.80625
20
-78.725
11
170.80625
21
-78.725
0
LINE
8
0
10
157.80625
20
-92.725
11
170.80625
21
-92.725
0
LINE
8
0
10
157.30625
20
-79.225
11
157.30625
21
-92.225
0
LINE
8
0
10
171.30625
20
-79.225
11
171.30625
21
-92.225
0
ARC
8
0
10
157.80625
20
-79.225
40
0.5
50
90
51
180
0
ARC
8
0
10
170.80625
20
-79.225
40
0.5
50
0
51
90
0
ARC
8
0
10
157.80625
20
-92.225
40
0.5
50
180
51
270
0
ARC
8
0
10
170.80625
20
-92.225
40
0.5
50
270
51
0
0
LINE
8
0
10
149.54085
20
-80.0354
11
155.19565
21
-80.0354
0
LINE
8
0
10
155.69565
20
-80.5354
11
155.69565
21
-80.8482
0
LINE
8
0
10
155.69565
20
-80.8482
11
164.30625
21
-80.8482
0
LINE
8
0
10
164.30625
20
-91.5416
11
156.19565
21
-91.5416
0
LINE
8
0
10
155.69565
20
-92.0416
11
155.69565
21
-92.329
0
LINE
8
0
10
155.69565
20
-92.329
11
154.39225
21
-92.329
0
LINE
8
0
10
153.89225
20
-92.829
11
153.89225
21
-92.9974
0
LINE
8
0
10
153.39225
20
-93.4974
11
151.34425
21
-93.4974
0
LINE
8
0
10
150.84425
20
-92.9974
11
150.84425
21
-92.829
0
LINE
8
0
10
150.34425
20
-92.329
11
149.54085
21
-92.329
0
LINE
8
0
10
149.04085
20
-91.829
11
149.04085
21
-86.733
0
LINE
8
0
10
148.54085
20
-86.233
11
148.17725
21
-86.233
0
LINE
8
0
10
148.17725
20
-86.233
11
148.17725
21
-83.939
0
LINE
8
0
10
148.67725
20
-83.439
11
149.04085
21
-83.439
0
LINE
8
0
10
149.04085
20
-83.439
11
149.04085
21
-80.5354
0
ARC
8
0
10
155.19565
20
-80.5354
40
0.5
50
0
51
90
0
ARC
8
0
10
156.19565
20
-92.0416
40
0.5
50
90
51
180
0
ARC
8
0
10
154.39225
20
-92.829
40
0.5
50
90
51
180
0
ARC
8
0
10
153.39225
20
-92.9974
40
0.5
50
270
51
0
0
ARC
8
0
10
151.34425
20
-92.9974
40
0.5
50
180
51
270
0
ARC
8
0
10
150.34425
20
-92.829
40
0.5
50
0
51
90
0
ARC
8
0
10
149.54085
20
-91.829
40
0.5
50
180
51
270
0
ARC
8
0
10
148.54085
20
-86.733
40
0.5
50
0
51
90
0
ARC
8
0
10
148.67725
20
-83.939
40
0.5
50
90
51
180
0
ARC
8
0
10
149.54085
20
-80.5354
40
0.5
50
90
51
180
0
LINE
8
0
10
179.07165
20
-80.0354
11
173.41685
21
-80.0354
0
LINE
8
0
10
172.91685
20
-80.5354
11
172.91685
21
-80.8482
0
LINE
8
0
10
172.91685
20
-80.8482
11
164.30625
21
-80.8482
0
LINE
8
0
10
164.30625
20
-91.5416
11
172.41685
21
-91.5416
0
LINE
8
0
10
172.91685
20
-92.0416
11
172.91685
21
-92.329
0
LINE
8
0
10
172.91685
20
-92.329
11
174.22025
21
-92.329
0
LINE
8
0
10
174.72025
20
-92.829
11
174.72025
21
-92.9974
0
LINE
8
0
10
175.22025
20
-93.4974
11
177.26825
21
-93.4974
0
LINE
8
0
10
177.76825
20
-92.9974
11
177.76825
21
-92.829
0
LINE
8
0
10
178.26825
20
-92.329
11
179.07165
21
-92.329
0
LINE
8
0
10
179.57165
20
-91.829
11
179.57165
21
-86.733
0
LINE
8
0
10
180.07165
20
-86.233
11
180.43525
21
-86.233
0
LINE
8
0
10
180.43525
20
-86.233
11
180.43525
21
-83.939
0
LINE
8
0
10
179.93525
20
-83.439
11
179.57165
21
-83.439
0
LINE
8
0
10
179.57165
20
-83.439
11
179.57165
21
-80.5354
0
ARC
8
0
10
173.41685
20
-80.5354
40
0.5
50
90
51
180
0
ARC
8
0
10
172.41685
20
-92.0416
40
0.5
50
0
51
90
0
ARC
8
0
10
174.22025
20
-92.829
40
0.5
50
0
51
90
0
ARC
8
0
10
175.22025
20
-92.9974
40
0.5
50
180
51
270
0
ARC
8
0
10
177.26825
20
-92.9974
40
0.5
50
270
51
0
0
ARC
8
0
10
178.26825
20
-92.829
40
0.5
50
90
51
180
0
ARC
8
0
10
179.07165
20
-91.829
40
0.5
50
270
51
0
0
ARC
8
0
10
180.07165
20
-86.733
40
0.5
50
90
51
180
0
ARC
8
0
10
179.93525
20
-83.939
40
0.5
50
0
51
90
0
ARC
8
0
10
179.07165
20
-80.5354
40
0.5
50
0
51
90
0
LINE
8
0
10
193.525
20
-78.725
11
206.525
21
-78.725
0
LINE
8
0
10
193.525
20
-92.725
11
206.525
21
-92.725
0
LINE
8
0
10
193.025
20
-79.225
11
193.025
21
-92.225
0
LINE
8
0
10
207.025
20
-79.225
11
207.025
21
-92.225
0
ARC
8
0
10
193.525
20
-79.225
40
0.5
50
90
51
180
0
ARC
8
0
10
206.525
20
-79.225
40
0.5
50
0
51
90
0
ARC
8
0
10
193.525
20
-92.225
40
0.5
50
180
51
270
0
ARC
8
0
10
206.525
20
-92.225
40
0.5
50
270
51
0
0
LINE
8
0
10
212.575
20
-78.725
11
225.575
21
-78.725
0
LINE
8
0
10
212.575
20
-92.725
11
225.575
21
-92.725
0
LINE
8
0
10
212.075
20
-79.225
11
212.075
21
-92.225
0
LINE
8
0
10
226.075
20
-79.225
11
226.075
21
-92.225
0
ARC
8
0
10
212.575
20
-79.225
40
0.5
50
90
51
180
0
ARC
8
0
10
225.575
20
-79.225
40
0.5
50
0
51
90
0
ARC
8
0
10
212.575
20
-92.225
40
0.5
50
180
51
270
0
ARC
8
0
10
225.575
20
-92.225
40
0.5
50
270
51
0
0
LINE
8
0
10
231.625
20
-78.725
11
244.625
21
-78.725
0
LINE
8
0
10
231.625
20
-92.725
11
244.625
21
-92.725
0
LINE
8
0
10
231.125
20
-79.225
11
231.125
21
-92.225
0
LINE
8
0
10
245.125
20
-79.225
11
245.125
21
-92.225
0
ARC
8
0
10
231.625
20
-79.225
40
0.5
50
90
51
180
0
ARC
8
0
10
244.625
20
-79.225
40
0.5
50
0
51
90
0
ARC
8
0
10
231.625
20
-92.225
40
0.5
50
180
51
270
0
ARC
8
0
10
244.625
20
-92.225
40
0.5
50
270
51
0
0
LINE
8
0
10
250.675
20
-78.725
11
263.675
21
-78.725
0
LINE
8
0
10
250.675
20
-92.725
11
263.675
21
-92.725
0
LINE
8
0
10
250.175
20
-79.225
11
250.175
21
-92.225
0
LINE
8
0
10
264.175
20
-79.225
11
264.175
21
-92.225
0
ARC
8
0
10
250.675
20
-79.225
40
0.5
50
90
51
180
0
ARC
8
0
10
263.675
20
-79.225
40
0.5
50
0
51
90
0
ARC
8
0
10
250.675
20
-92.225
40
0.5
50
180
51
270
0
ARC
8
0
10
263.675
20
-92.225
40
0.5
50
270
51
0
0
LINE
8
0
10
269.725
20
-78.725
11
282.725
21
-78.725
0
LINE
8
0
10
269.725
20
-92.725
11
282.725
21
-92.725
0
LINE
8
0
10
269.225
20
-79.225
11
269.225
21
-92.225
0
LINE
8
0
10
283.225
20
-79.225
11
283.225
21
-92.225
0
ARC
8
0
10
269.725
20
-79.225
40
0.5
50
90
51
180
0
ARC
8
0
10
282.725
20
-79.225
40
0.5
50
0
51
90
0
ARC
8
0
10
269.725
20
-92.225
40
0.5
50
180
51
270
0
ARC
8
0
10
282.725
20
-92.225
40
0.5
50
270
51
0
0
LINE
8
0
10
0
20
-95.25
11
285.75
21
-95.25
0
LINE
8
0
10
0
20
0
11
285.75
21
0
0
LINE
8
0
10
0
20
-95.25
11
0
21
0
0
LINE
8
0
10
285.75
20
-95.25
11
285.75
21
0
0
ENDSEC
0
EOF