0
SECTION
2
HEADER
9
$INSUNITS
70
4
0
ENDSEC
0
SECTION
2
TABLES
0
TABLE
2
LTYPE
0
LTYPE
72
65
70
64
2
CONTINUOUS
3
______
73
0
40
0
0
ENDTAB
0
TABLE
2
LAYER
0
ENDTAB
0
ENDSEC
0
SECTION
2
ENTITIES
0
LINE
8
0
10
3.525
20
-2.525
11
15.525
21
-2.525
0
LINE
8
0
10
3.525
20
-16.525
11
15.525
21
-16.525
0
LINE
8
0
10
2.525
20
-3.525
11
2.525
21
-15.525
0
LINE
8
0
10
16.525
20
-3.525
11
16.525
21
-15.525
0
ARC
8
0
10
3.525
20
-3.525
40
1
50
90
51
180
0
ARC
8
0
10
15.525
20
-3.525
40
1
50
0
51
90
0
ARC
8
0
10
3.525
20
-15.525
40
1
50
180
51
270
0
ARC
8
0
10
15.525
20
-15.525
40
1
50
270
51
0
0
LINE
8
0
10
22.575
20
-2.525
11
34.575
21
-2.525
0
LINE
8
0
10
22.575
20
-16.525
11
34.575
21
-16.525
0
LINE
8
0
10
21.575
20
-3.525
11
21.575
21
-15.525
0
LINE
8
0
10
35.575
20
-3.525
11
35.575
21
-15.525
0
ARC
8
0
10
22.575
20
-3.525
40
1
50
90
51
180
0
ARC
8
0
10
34.575
20
-3.525
40
1
50
0
51
90
0
ARC
8
0
10
22.575
20
-15.525
40
1
50
180
51
270
0
ARC
8
0
10
34.575
20
-15.525
40
1
50
270
51
0
0
LINE
8
0
10
41.625
20
-2.525
11
53.625
21
-2.525
0
LINE
8
0
10
41.625
20
-16.525
11
53.625
21
-16.525
0
LINE
8
0
10
40.625
20
-3.525
11
40.625
21
-15.525
0
LINE
8
0
10
54.625
20
-3.525
11
54.625
21
-15.525
0
ARC
8
0
10
41.625
20
-3.525
40
1
50
90
51
180
0
ARC
8
0
10
53.625
20
-3.525
40
1
50
0
51
90
0
ARC
8
0
10
41.625
20
-15.525
40
1
50
180
51
270
0
ARC
8
0
10
53.625
20
-15.525
40
1
50
270
51
0
0
LINE
8
0
10
60.675
20
-2.525
11
72.675
21
-2.525
0
LINE
8
0
10
60.675
20
-16.525
11
72.675
21
-16.525
0
LINE
8
0
10
59.675
20
-3.525
11
59.675
21
-15.525
0
LINE
8
0
10
73.675
20
-3.525
11
73.675
21
-15.525
0
ARC
8
0
10
60.675
20
-3.525
40
1
50
90
51
180
0
ARC
8
0
10
72.675
20
-3.525
40
1
50
0
51
90
0
ARC
8
0
10
60.675
20
-15.525
40
1
50
180
51
270
0
ARC
8
0
10
72.675
20
-15.525
40
1
50
270
51
0
0
LINE
8
0
10
79.725
20
-2.525
11
91.725
21
-2.525
0
LINE
8
0
10
79.725
20
-16.525
11
91.725
21
-16.525
0
LINE
8
0
10
78.725
20
-3.525
11
78.725
21
-15.525
0
LINE
8
0
10
92.725
20
-3.525
11
92.725
21
-15.525
0
ARC
8
0
10
79.725
20
-3.525
40
1
50
90
51
180
0
ARC
8
0
10
91.725
20
-3.525
40
1
50
0
51
90
0
ARC
8
0
10
79.725
20
-15.525
40
1
50
180
51
270
0
ARC
8
0
10
91.725
20
-15.525
40
1
50
270
51
0
0
LINE
8
0
10
98.775
20
-2.525
11
110.775
21
-2.525
0
LINE
8
0
10
98.775
20
-16.525
11
110.775
21
-16.525
0
LINE
8
0
10
97.775
20
-3.525
11
97.775
21
-15.525
0
LINE
8
0
10
111.775
20
-3.525
11
111.775
21
-15.525
0
ARC
8
0
10
98.775
20
-3.525
40
1
50
90
51
180
0
ARC
8
0
10
110.775
20
-3.525
40
1
50
0
51
90
0
ARC
8
0
10
98.775
20
-15.525
40
1
50
180
51
270
0
ARC
8
0
10
110.775
20
-15.525
40
1
50
270
51
0
0
LINE
8
0
10
117.825
20
-2.525
11
129.825
21
-2.525
0
LINE
8
0
10
117.825
20
-16.525
11
129.825
21
-16.525
0
LINE
8
0
10
116.825
20
-3.525
11
116.825
21
-15.525
0
LINE
8
0
10
130.825
20
-3.525
11
130.825
21
-15.525
0
ARC
8
0
10
117.825
20
-3.525
40
1
50
90
51
180
0
ARC
8
0
10
129.825
20
-3.525
40
1
50
0
51
90
0
ARC
8
0
10
117.825
20
-15.525
40
1
50
180
51
270
0
ARC
8
0
10
129.825
20
-15.525
40
1
50
270
51
0
0
LINE
8
0
10
136.875
20
-2.525
11
148.875
21
-2.525
0
LINE
8
0
10
136.875
20
-16.525
11
148.875
21
-16.525
0
LINE
8
0
10
135.875
20
-3.525
11
135.875
21
-15.525
0
LINE
8
0
10
149.875
20
-3.525
11
149.875
21
-15.525
0
ARC
8
0
10
136.875
20
-3.525
40
1
50
90
51
180
0
ARC
8
0
10
148.875
20
-3.525
40
1
50
0
51
90
0
ARC
8
0
10
136.875
20
-15.525
40
1
50
180
51
270
0
ARC
8
0
10
148.875
20
-15.525
40
1
50
270
51
0
0
LINE
8
0
10
155.925
20
-2.525
11
167.925
21
-2.525
0
LINE
8
0
10
155.925
20
-16.525
11
167.925
21
-16.525
0
LINE
8
0
10
154.925
20
-3.525
11
154.925
21
-15.525
0
LINE
8
0
10
168.925
20
-3.525
11
168.925
21
-15.525
0
ARC
8
0
10
155.925
20
-3.525
40
1
50
90
51
180
0
ARC
8
0
10
167.925
20
-3.525
40
1
50
0
51
90
0
ARC
8
0
10
155.925
20
-15.525
40
1
50
180
51
270
0
ARC
8
0
10
167.925
20
-15.525
40
1
50
270
51
0
0
LINE
8
0
10
174.975
20
-2.525
11
186.975
21
-2.525
0
LINE
8
0
10
174.975
20
-16.525
11
186.975
21
-16.525
0
LINE
8
0
10
173.975
20
-3.525
11
173.975
21
-15.525
0
LINE
8
0
10
187.975
20
-3.525
11
187.975
21
-15.525
0
ARC
8
0
10
174.975
20
-3.525
40
1
50
90
51
180
0
ARC
8
0
10
186.975
20
-3.525
40
1
50
0
51
90
0
ARC
8
0
10
174.975
20
-15.525
40
1
50
180
51
270
0
ARC
8
0
10
186.975
20
-15.525
40
1
50
270
51
0
0
LINE
8
0
10
194.025
20
-2.525
11
206.025
21
-2.525
0
LINE
8
0
10
194.025
20
-16.525
11
206.025
21
-16.525
0
LINE
8
0
10
193.025
20
-3.525
11
193.025
21
-15.525
0
LINE
8
0
10
207.025
20
-3.525
11
207.025
21
-15.525
0
ARC
8
0
10
194.025
20
-3.525
40
1
50
90
51
180
0
ARC
8
0
10
206.025
20
-3.525
40
1
50
0
51
90
0
ARC
8
0
10
194.025
20
-15.525
40
1
50
180
51
270
0
ARC
8
0
10
206.025
20
-15.525
40
1
50
270
51
0
0
LINE
8
0
10
213.075
20
-2.525
11
225.075
21
-2.525
0
LINE
8
0
10
213.075
20
-16.525
11
225.075
21
-16.525
0
LINE
8
0
10
212.075
20
-3.525
11
212.075
21
-15.525
0
LINE
8
0
10
226.075
20
-3.525
11
226.075
21
-15.525
0
ARC
8
0
10
213.075
20
-3.525
40
1
50
90
51
180
0
ARC
8
0
10
225.075
20
-3.525
40
1
50
0
51
90
0
ARC
8
0
10
213.075
20
-15.525
40
1
50
180
51
270
0
ARC
8
0
10
225.075
20
-15.525
40
1
50
270
51
0
0
LINE
8
0
10
232.125
20
-2.525
11
244.125
21
-2.525
0
LINE
8
0
10
232.125
20
-16.525
11
244.125
21
-16.525
0
LINE
8
0
10
231.125
20
-3.525
11
231.125
21
-15.525
0
LINE
8
0
10
245.125
20
-3.525
11
245.125
21
-15.525
0
ARC
8
0
10
232.125
20
-3.525
40
1
50
90
51
180
0
ARC
8
0
10
244.125
20
-3.525
40
1
50
0
51
90
0
ARC
8
0
10
232.125
20
-15.525
40
1
50
180
51
270
0
ARC
8
0
10
244.125
20
-15.525
40
1
50
270
51
0
0
LINE
8
0
10
260.7
20
-2.525
11
272.7
21
-2.525
0
LINE
8
0
10
260.7
20
-16.525
11
272.7
21
-16.525
0
LINE
8
0
10
259.7
20
-3.525
11
259.7
21
-15.525
0
LINE
8
0
10
273.7
20
-3.525
11
273.7
21
-15.525
0
ARC
8
0
10
260.7
20
-3.525
40
1
50
90
51
180
0
ARC
8
0
10
272.7
20
-3.525
40
1
50
0
51
90
0
ARC
8
0
10
260.7
20
-15.525
40
1
50
180
51
270
0
ARC
8
0
10
272.7
20
-15.525
40
1
50
270
51
0
0
LINE
8
0
10
252.4346
20
-3.8354
11
258.0894
21
-3.8354
0
LINE
8
0
10
258.0894
20
-3.8354
11
258.0894
21
-4.6482
0
LINE
8
0
10
258.0894
20
-4.6482
11
266.7
21
-4.6482
0
LINE
8
0
10
266.7
20
-15.3416
11
258.0894
21
-15.3416
0
LINE
8
0
10
258.0894
20
-15.3416
11
258.0894
21
-16.129
0
LINE
8
0
10
258.0894
20
-16.129
11
257.286
21
-16.129
0
LINE
8
0
10
256.286
20
-17.129
11
256.286
21
-17.2974
0
LINE
8
0
10
256.286
20
-17.2974
11
254.238
21
-17.2974
0
LINE
8
0
10
253.238
20
-16.2974
11
253.238
21
-16.129
0
LINE
8
0
10
253.238
20
-16.129
11
252.4346
21
-16.129
0
LINE
8
0
10
251.4346
20
-15.129
11
251.4346
21
-10.033
0
LINE
8
0
10
251.4346
20
-10.033
11
250.571
21
-10.033
0
LINE
8
0
10
250.571
20
-10.033
11
250.571
21
-7.239
0
LINE
8
0
10
250.571
20
-7.239
11
251.4346
21
-7.239
0
LINE
8
0
10
251.4346
20
-7.239
11
251.4346
21
-4.8354
0
ARC
8
0
10
257.286
20
-17.129
40
1
50
90
51
180
0
ARC
8
0
10
254.238
20
-16.2974
40
1
50
180
51
270
0
ARC
8
0
10
252.4346
20
-15.129
40
1
50
180
51
270
0
ARC
8
0
10
252.4346
20
-4.8354
40
1
50
90
51
180
0
LINE
8
0
10
280.9654
20
-3.8354
11
275.3106
21
-3.8354
0
LINE
8
0
10
275.3106
20
-3.8354
11
275.3106
21
-4.6482
0
LINE
8
0
10
275.3106
20
-4.6482
11
266.7
21
-4.6482
0
LINE
8
0
10
266.7
20
-15.3416
11
275.3106
21
-15.3416
0
LINE
8
0
10
275.3106
20
-15.3416
11
275.3106
21
-16.129
0
LINE
8
0
10
275.3106
20
-16.129
11
276.114
21
-16.129
0
LINE
8
0
10
277.114
20
-17.129
11
277.114
21
-17.2974
0
LINE
8
0
10
277.114
20
-17.2974
11
279.162
21
-17.2974
0
LINE
8
0
10
280.162
20
-16.2974
11
280.162
21
-16.129
0
LINE
8
0
10
280.162
20
-16.129
11
280.9654
21
-16.129
0
LINE
8
0
10
281.9654
20
-15.129
11
281.9654
21
-10.033
0
LINE
8
0
10
281.9654
20
-10.033
11
282.829
21
-10.033
0
LINE
8
0
10
282.829
20
-10.033
11
282.829
21
-7.239
0
LINE
8
0
10
282.829
20
-7.239
11
281.9654
21
-7.239
0
LINE
8
0
10
281.9654
20
-7.239
11
281.9654
21
-4.8354
0
ARC
8
0
10
276.114
20
-17.129
40
1
50
0
51
90
0
ARC
8
0
10
279.162
20
-16.2974
40
1
50
270
51
0
0
ARC
8
0
10
280.9654
20
-15.129
40
1
50
270
51
0
0
ARC
8
0
10
280.9654
20
-4.8354
40
1
50
0
51
90
0
LINE
8
0
10
8.2875
20
-21.575
11
20.2875
21
-21.575
0
LINE
8
0
10
8.2875
20
-35.575
11
20.2875
21
-35.575
0
LINE
8
0
10
7.2875
20
-22.575
11
7.2875
21
-34.575
0
LINE
8
0
10
21.2875
20
-22.575
11
21.2875
21
-34.575
0
ARC
8
0
10
8.2875
20
-22.575
40
1
50
90
51
180
0
ARC
8
0
10
20.2875
20
-22.575
40
1
50
0
51
90
0
ARC
8
0
10
8.2875
20
-34.575
40
1
50
180
51
270
0
ARC
8
0
10
20.2875
20
-34.575
40
1
50
270
51
0
0
LINE
8
0
10
32.1
20
-21.575
11
44.1
21
-21.575
0
LINE
8
0
10
32.1
20
-35.575
11
44.1
21
-35.575
0
LINE
8
0
10
31.1
20
-22.575
11
31.1
21
-34.575
0
LINE
8
0
10
45.1
20
-22.575
11
45.1
21
-34.575
0
ARC
8
0
10
32.1
20
-22.575
40
1
50
90
51
180
0
ARC
8
0
10
44.1
20
-22.575
40
1
50
0
51
90
0
ARC
8
0
10
32.1
20
-34.575
40
1
50
180
51
270
0
ARC
8
0
10
44.1
20
-34.575
40
1
50
270
51
0
0
LINE
8
0
10
51.15
20
-21.575
11
63.15
21
-21.575
0
LINE
8
0
10
51.15
20
-35.575
11
63.15
21
-35.575
0
LINE
8
0
10
50.15
20
-22.575
11
50.15
21
-34.575
0
LINE
8
0
10
64.15
20
-22.575
11
64.15
21
-34.575
0
ARC
8
0
10
51.15
20
-22.575
40
1
50
90
51
180
0
ARC
8
0
10
63.15
20
-22.575
40
1
50
0
51
90
0
ARC
8
0
10
51.15
20
-34.575
40
1
50
180
51
270
0
ARC
8
0
10
63.15
20
-34.575
40
1
50
270
51
0
0
LINE
8
0
10
70.2
20
-21.575
11
82.2
21
-21.575
0
LINE
8
0
10
70.2
20
-35.575
11
82.2
21
-35.575
0
LINE
8
0
10
69.2
20
-22.575
11
69.2
21
-34.575
0
LINE
8
0
10
83.2
20
-22.575
11
83.2
21
-34.575
0
ARC
8
0
10
70.2
20
-22.575
40
1
50
90
51
180
0
ARC
8
0
10
82.2
20
-22.575
40
1
50
0
51
90
0
ARC
8
0
10
70.2
20
-34.575
40
1
50
180
51
270
0
ARC
8
0
10
82.2
20
-34.575
40
1
50
270
51
0
0
LINE
8
0
10
89.25
20
-21.575
11
101.25
21
-21.575
0
LINE
8
0
10
89.25
20
-35.575
11
101.25
21
-35.575
0
LINE
8
0
10
88.25
20
-22.575
11
88.25
21
-34.575
0
LINE
8
0
10
102.25
20
-22.575
11
102.25
21
-34.575
0
ARC
8
0
10
89.25
20
-22.575
40
1
50
90
51
180
0
ARC
8
0
10
101.25
20
-22.575
40
1
50
0
51
90
0
ARC
8
0
10
89.25
20
-34.575
40
1
50
180
51
270
0
ARC
8
0
10
101.25
20
-34.575
40
1
50
270
51
0
0
LINE
8
0
10
108.3
20
-21.575
11
120.3
21
-21.575
0
LINE
8
0
10
108.3
20
-35.575
11
120.3
21
-35.575
0
LINE
8
0
10
107.3
20
-22.575
11
107.3
21
-34.575
0
LINE
8
0
10
121.3
20
-22.575
11
121.3
21
-34.575
0
ARC
8
0
10
108.3
20
-22.575
40
1
50
90
51
180
0
ARC
8
0
10
120.3
20
-22.575
40
1
50
0
51
90
0
ARC
8
0
10
108.3
20
-34.575
40
1
50
180
51
270
0
ARC
8
0
10
120.3
20
-34.575
40
1
50
270
51
0
0
LINE
8
0
10
127.35
20
-21.575
11
139.35
21
-21.575
0
LINE
8
0
10
127.35
20
-35.575
11
139.35
21
-35.575
0
LINE
8
0
10
126.35
20
-22.575
11
126.35
21
-34.575
0
LINE
8
0
10
140.35
20
-22.575
11
140.35
21
-34.575
0
ARC
8
0
10
127.35
20
-22.575
40
1
50
90
51
180
0
ARC
8
0
10
139.35
20
-22.575
40
1
50
0
51
90
0
ARC
8
0
10
127.35
20
-34.575
40
1
50
180
51
270
0
ARC
8
0
10
139.35
20
-34.575
40
1
50
270
51
0
0
LINE
8
0
10
146.4
20
-21.575
11
158.4
21
-21.575
0
LINE
8
0
10
146.4
20
-35.575
11
158.4
21
-35.575
0
LINE
8
0
10
145.4
20
-22.575
11
145.4
21
-34.575
0
LINE
8
0
10
159.4
20
-22.575
11
159.4
21
-34.575
0
ARC
8
0
10
146.4
20
-22.575
40
1
50
90
51
180
0
ARC
8
0
10
158.4
20
-22.575
40
1
50
0
51
90
0
ARC
8
0
10
146.4
20
-34.575
40
1
50
180
51
270
0
ARC
8
0
10
158.4
20
-34.575
40
1
50
270
51
0
0
LINE
8
0
10
165.45
20
-21.575
11
177.45
21
-21.575
0
LINE
8
0
10
165.45
20
-35.575
11
177.45
21
-35.575
0
LINE
8
0
10
164.45
20
-22.575
11
164.45
21
-34.575
0
LINE
8
0
10
178.45
20
-22.575
11
178.45
21
-34.575
0
ARC
8
0
10
165.45
20
-22.575
40
1
50
90
51
180
0
ARC
8
0
10
177.45
20
-22.575
40
1
50
0
51
90
0
ARC
8
0
10
165.45
20
-34.575
40
1
50
180
51
270
0
ARC
8
0
10
177.45
20
-34.575
40
1
50
270
51
0
0
LINE
8
0
10
184.5
20
-21.575
11
196.5
21
-21.575
0
LINE
8
0
10
184.5
20
-35.575
11
196.5
21
-35.575
0
LINE
8
0
10
183.5
20
-22.575
11
183.5
21
-34.575
0
LINE
8
0
10
197.5
20
-22.575
11
197.5
21
-34.575
0
ARC
8
0
10
184.5
20
-22.575
40
1
50
90
51
180
0
ARC
8
0
10
196.5
20
-22.575
40
1
50
0
51
90
0
ARC
8
0
10
184.5
20
-34.575
40
1
50
180
51
270
0
ARC
8
0
10
196.5
20
-34.575
40
1
50
270
51
0
0
LINE
8
0
10
203.55
20
-21.575
11
215.55
21
-21.575
0
LINE
8
0
10
203.55
20
-35.575
11
215.55
21
-35.575
0
LINE
8
0
10
202.55
20
-22.575
11
202.55
21
-34.575
0
LINE
8
0
10
216.55
20
-22.575
11
216.55
21
-34.575
0
ARC
8
0
10
203.55
20
-22.575
40
1
50
90
51
180
0
ARC
8
0
10
215.55
20
-22.575
40
1
50
0
51
90
0
ARC
8
0
10
203.55
20
-34.575
40
1
50
180
51
270
0
ARC
8
0
10
215.55
20
-34.575
40
1
50
270
51
0
0
LINE
8
0
10
222.6
20
-21.575
11
234.6
21
-21.575
0
LINE
8
0
10
222.6
20
-35.575
11
234.6
21
-35.575
0
LINE
8
0
10
221.6
20
-22.575
11
221.6
21
-34.575
0
LINE
8
0
10
235.6
20
-22.575
11
235.6
21
-34.575
0
ARC
8
0
10
222.6
20
-22.575
40
1
50
90
51
180
0
ARC
8
0
10
234.6
20
-22.575
40
1
50
0
51
90
0
ARC
8
0
10
222.6
20
-34.575
40
1
50
180
51
270
0
ARC
8
0
10
234.6
20
-34.575
40
1
50
270
51
0
0
LINE
8
0
10
241.65
20
-21.575
11
253.65
21
-21.575
0
LINE
8
0
10
241.65
20
-35.575
11
253.65
21
-35.575
0
LINE
8
0
10
240.65
20
-22.575
11
240.65
21
-34.575
0
LINE
8
0
10
254.65
20
-22.575
11
254.65
21
-34.575
0
ARC
8
0
10
241.65
20
-22.575
40
1
50
90
51
180
0
ARC
8
0
10
253.65
20
-22.575
40
1
50
0
51
90
0
ARC
8
0
10
241.65
20
-34.575
40
1
50
180
51
270
0
ARC
8
0
10
253.65
20
-34.575
40
1
50
270
51
0
0
LINE
8
0
10
280.84375
20
-32.1
11
280.84375
21
-44.1
0
LINE
8
0
10
266.84375
20
-32.1
11
266.84375
21
-44.1
0
LINE
8
0
10
279.84375
20
-31.1
11
267.84375
21
-31.1
0
LINE
8
0
10
279.84375
20
-45.1
11
267.84375
21
-45.1
0
ARC
8
0
10
279.84375
20
-32.1
40
1
50
0
51
90
0
ARC
8
0
10
279.84375
20
-44.1
40
1
50
270
51
0
0
ARC
8
0
10
267.84375
20
-32.1
40
1
50
90
51
180
0
ARC
8
0
10
267.84375
20
-44.1
40
1
50
180
51
270
0
LINE
8
0
10
279.53335
20
-23.8346
11
279.53335
21
-29.4894
0
LINE
8
0
10
279.53335
20
-29.4894
11
278.72055
21
-29.4894
0
LINE
8
0
10
278.72055
20
-29.4894
11
278.72055
21
-38.1
0
LINE
8
0
10
268.02715
20
-38.1
11
268.02715
21
-29.4894
0
LINE
8
0
10
268.02715
20
-29.4894
11
267.23975
21
-29.4894
0
LINE
8
0
10
267.23975
20
-29.4894
11
267.23975
21
-28.686
0
LINE
8
0
10
266.23975
20
-27.686
11
266.07135
21
-27.686
0
LINE
8
0
10
266.07135
20
-27.686
11
266.07135
21
-25.638
0
LINE
8
0
10
267.07135
20
-24.638
11
267.23975
21
-24.638
0
LINE
8
0
10
267.23975
20
-24.638
11
267.23975
21
-23.8346
0
LINE
8
0
10
268.23975
20
-22.8346
11
273.33575
21
-22.8346
0
LINE
8
0
10
273.33575
20
-22.8346
11
273.33575
21
-21.971
0
LINE
8
0
10
273.33575
20
-21.971
11
276.12975
21
-21.971
0
LINE
8
0
10
276.12975
20
-21.971
11
276.12975
21
-22.8346
0
LINE
8
0
10
276.12975
20
-22.8346
11
278.53335
21
-22.8346
0
ARC
8
0
10
266.23975
20
-28.686
40
1
50
0
51
90
0
ARC
8
0
10
267.07135
20
-25.638
40
1
50
90
51
180
0
ARC
8
0
10
268.23975
20
-23.8346
40
1
50
90
51
180
0
ARC
8
0
10
278.53335
20
-23.8346
40
1
50
0
51
90
0
LINE
8
0
10
279.53335
20
-52.3654
11
279.53335
21
-46.7106
0
LINE
8
0
10
279.53335
20
-46.7106
11
278.72055
21
-46.7106
0
LINE
8
0
10
278.72055
20
-46.7106
11
278.72055
21
-38.1
0
LINE
8
0
10
268.02715
20
-38.1
11
268.02715
21
-46.7106
0
LINE
8
0
10
268.02715
20
-46.7106
11
267.23975
21
-46.7106
0
LINE
8
0
10
267.23975
20
-46.7106
11
267.23975
21
-47.514
0
LINE
8
0
10
266.23975
20
-48.514
11
266.07135
21
-48.514
0
LINE
8
0
10
266.07135
20
-48.514
11
266.07135
21
-50.562
0
LINE
8
0
10
267.07135
20
-51.562
11
267.23975
21
-51.562
0
LINE
8
0
10
267.23975
20
-51.562
11
267.23975
21
-52.3654
0
LINE
8
0
10
268.23975
20
-53.3654
11
273.33575
21
-53.3654
0
LINE
8
0
10
273.33575
20
-53.3654
11
273.33575
21
-54.229
0
LINE
8
0
10
273.33575
20
-54.229
11
276.12975
21
-54.229
0
LINE
8
0
10
276.12975
20
-54.229
11
276.12975
21
-53.3654
0
LINE
8
0
10
276.12975
20
-53.3654
11
278.53335
21
-53.3654
0
ARC
8
0
10
266.23975
20
-47.514
40
1
50
270
51
0
0
ARC
8
0
10
267.07135
20
-50.562
40
1
50
180
51
270
0
ARC
8
0
10
268.23975
20
-52.3654
40
1
50
180
51
270
0
ARC
8
0
10
278.53335
20
-52.3654
40
1
50
270
51
0
0
LINE
8
0
10
10.66875
20
-40.625
11
22.66875
21
-40.625
0
LINE
8
0
10
10.66875
20
-54.625
11
22.66875
21
-54.625
0
LINE
8
0
10
9.66875
20
-41.625
11
9.66875
21
-53.625
0
LINE
8
0
10
23.66875
20
-41.625
11
23.66875
21
-53.625
0
ARC
8
0
10
10.66875
20
-41.625
40
1
50
90
51
180
0
ARC
8
0
10
22.66875
20
-41.625
40
1
50
0
51
90
0
ARC
8
0
10
10.66875
20
-53.625
40
1
50
180
51
270
0
ARC
8
0
10
22.66875
20
-53.625
40
1
50
270
51
0
0
LINE
8
0
10
36.8625
20
-40.625
11
48.8625
21
-40.625
0
LINE
8
0
10
36.8625
20
-54.625
11
48.8625
21
-54.625
0
LINE
8
0
10
35.8625
20
-41.625
11
35.8625
21
-53.625
0
LINE
8
0
10
49.8625
20
-41.625
11
49.8625
21
-53.625
0
ARC
8
0
10
36.8625
20
-41.625
40
1
50
90
51
180
0
ARC
8
0
10
48.8625
20
-41.625
40
1
50
0
51
90
0
ARC
8
0
10
36.8625
20
-53.625
40
1
50
180
51
270
0
ARC
8
0
10
48.8625
20
-53.625
40
1
50
270
51
0
0
LINE
8
0
10
55.9125
20
-40.625
11
67.9125
21
-40.625
0
LINE
8
0
10
55.9125
20
-54.625
11
67.9125
21
-54.625
0
LINE
8
0
10
54.9125
20
-41.625
11
54.9125
21
-53.625
0
LINE
8
0
10
68.9125
20
-41.625
11
68.9125
21
-53.625
0
ARC
8
0
10
55.9125
20
-41.625
40
1
50
90
51
180
0
ARC
8
0
10
67.9125
20
-41.625
40
1
50
0
51
90
0
ARC
8
0
10
55.9125
20
-53.625
40
1
50
180
51
270
0
ARC
8
0
10
67.9125
20
-53.625
40
1
50
270
51
0
0
LINE
8
0
10
74.9625
20
-40.625
11
86.9625
21
-40.625
0
LINE
8
0
10
74.9625
20
-54.625
11
86.9625
21
-54.625
0
LINE
8
0
10
73.9625
20
-41.625
11
73.9625
21
-53.625
0
LINE
8
0
10
87.9625
20
-41.625
11
87.9625
21
-53.625
0
ARC
8
0
10
74.9625
20
-41.625
40
1
50
90
51
180
0
ARC
8
0
10
86.9625
20
-41.625
40
1
50
0
51
90
0
ARC
8
0
10
74.9625
20
-53.625
40
1
50
180
51
270
0
ARC
8
0
10
86.9625
20
-53.625
40
1
50
270
51
0
0
LINE
8
0
10
94.0125
20
-40.625
11
106.0125
21
-40.625
0
LINE
8
0
10
94.0125
20
-54.625
11
106.0125
21
-54.625
0
LINE
8
0
10
93.0125
20
-41.625
11
93.0125
21
-53.625
0
LINE
8
0
10
107.0125
20
-41.625
11
107.0125
21
-53.625
0
ARC
8
0
10
94.0125
20
-41.625
40
1
50
90
51
180
0
ARC
8
0
10
106.0125
20
-41.625
40
1
50
0
51
90
0
ARC
8
0
10
94.0125
20
-53.625
40
1
50
180
51
270
0
ARC
8
0
10
106.0125
20
-53.625
40
1
50
270
51
0
0
LINE
8
0
10
113.0625
20
-40.625
11
125.0625
21
-40.625
0
LINE
8
0
10
113.0625
20
-54.625
11
125.0625
21
-54.625
0
LINE
8
0
10
112.0625
20
-41.625
11
112.0625
21
-53.625
0
LINE
8
0
10
126.0625
20
-41.625
11
126.0625
21
-53.625
0
ARC
8
0
10
113.0625
20
-41.625
40
1
50
90
51
180
0
ARC
8
0
10
125.0625
20
-41.625
40
1
50
0
51
90
0
ARC
8
0
10
113.0625
20
-53.625
40
1
50
180
51
270
0
ARC
8
0
10
125.0625
20
-53.625
40
1
50
270
51
0
0
LINE
8
0
10
132.1125
20
-40.625
11
144.1125
21
-40.625
0
LINE
8
0
10
132.1125
20
-54.625
11
144.1125
21
-54.625
0
LINE
8
0
10
131.1125
20
-41.625
11
131.1125
21
-53.625
0
LINE
8
0
10
145.1125
20
-41.625
11
145.1125
21
-53.625
0
ARC
8
0
10
132.1125
20
-41.625
40
1
50
90
51
180
0
ARC
8
0
10
144.1125
20
-41.625
40
1
50
0
51
90
0
ARC
8
0
10
132.1125
20
-53.625
40
1
50
180
51
270
0
ARC
8
0
10
144.1125
20
-53.625
40
1
50
270
51
0
0
LINE
8
0
10
151.1625
20
-40.625
11
163.1625
21
-40.625
0
LINE
8
0
10
151.1625
20
-54.625
11
163.1625
21
-54.625
0
LINE
8
0
10
150.1625
20
-41.625
11
150.1625
21
-53.625
0
LINE
8
0
10
164.1625
20
-41.625
11
164.1625
21
-53.625
0
ARC
8
0
10
151.1625
20
-41.625
40
1
50
90
51
180
0
ARC
8
0
10
163.1625
20
-41.625
40
1
50
0
51
90
0
ARC
8
0
10
151.1625
20
-53.625
40
1
50
180
51
270
0
ARC
8
0
10
163.1625
20
-53.625
40
1
50
270
51
0
0
LINE
8
0
10
170.2125
20
-40.625
11
182.2125
21
-40.625
0
LINE
8
0
10
170.2125
20
-54.625
11
182.2125
21
-54.625
0
LINE
8
0
10
169.2125
20
-41.625
11
169.2125
21
-53.625
0
LINE
8
0
10
183.2125
20
-41.625
11
183.2125
21
-53.625
0
ARC
8
0
10
170.2125
20
-41.625
40
1
50
90
51
180
0
ARC
8
0
10
182.2125
20
-41.625
40
1
50
0
51
90
0
ARC
8
0
10
170.2125
20
-53.625
40
1
50
180
51
270
0
ARC
8
0
10
182.2125
20
-53.625
40
1
50
270
51
0
0
LINE
8
0
10
189.2625
20
-40.625
11
201.2625
21
-40.625
0
LINE
8
0
10
189.2625
20
-54.625
11
201.2625
21
-54.625
0
LINE
8
0
10
188.2625
20
-41.625
11
188.2625
21
-53.625
0
LINE
8
0
10
202.2625
20
-41.625
11
202.2625
21
-53.625
0
ARC
8
0
10
189.2625
20
-41.625
40
1
50
90
51
180
0
ARC
8
0
10
201.2625
20
-41.625
40
1
50
0
51
90
0
ARC
8
0
10
189.2625
20
-53.625
40
1
50
180
51
270
0
ARC
8
0
10
201.2625
20
-53.625
40
1
50
270
51
0
0
LINE
8
0
10
208.3125
20
-40.625
11
220.3125
21
-40.625
0
LINE
8
0
10
208.3125
20
-54.625
11
220.3125
21
-54.625
0
LINE
8
0
10
207.3125
20
-41.625
11
207.3125
21
-53.625
0
LINE
8
0
10
221.3125
20
-41.625
11
221.3125
21
-53.625
0
ARC
8
0
10
208.3125
20
-41.625
40
1
50
90
51
180
0
ARC
8
0
10
220.3125
20
-41.625
40
1
50
0
51
90
0
ARC
8
0
10
208.3125
20
-53.625
40
1
50
180
51
270
0
ARC
8
0
10
220.3125
20
-53.625
40
1
50
270
51
0
0
LINE
8
0
10
227.3625
20
-40.625
11
239.3625
21
-40.625
0
LINE
8
0
10
227.3625
20
-54.625
11
239.3625
21
-54.625
0
LINE
8
0
10
226.3625
20
-41.625
11
226.3625
21
-53.625
0
LINE
8
0
10
240.3625
20
-41.625
11
240.3625
21
-53.625
0
ARC
8
0
10
227.3625
20
-41.625
40
1
50
90
51
180
0
ARC
8
0
10
239.3625
20
-41.625
40
1
50
0
51
90
0
ARC
8
0
10
227.3625
20
-53.625
40
1
50
180
51
270
0
ARC
8
0
10
239.3625
20
-53.625
40
1
50
270
51
0
0
LINE
8
0
10
246.4125
20
-40.625
11
258.4125
21
-40.625
0
LINE
8
0
10
246.4125
20
-54.625
11
258.4125
21
-54.625
0
LINE
8
0
10
245.4125
20
-41.625
11
245.4125
21
-53.625
0
LINE
8
0
10
259.4125
20
-41.625
11
259.4125
21
-53.625
0
ARC
8
0
10
246.4125
20
-41.625
40
1
50
90
51
180
0
ARC
8
0
10
258.4125
20
-41.625
40
1
50
0
51
90
0
ARC
8
0
10
246.4125
20
-53.625
40
1
50
180
51
270
0
ARC
8
0
10
258.4125
20
-53.625
40
1
50
270
51
0
0
LINE
8
0
10
15.43125
20
-59.675
11
27.43125
21
-59.675
0
LINE
8
0
10
15.43125
20
-73.675
11
27.43125
21
-73.675
0
LINE
8
0
10
14.43125
20
-60.675
11
14.43125
21
-72.675
0
LINE
8
0
10
28.43125
20
-60.675
11
28.43125
21
-72.675
0
ARC
8
0
10
15.43125
20
-60.675
40
1
50
90
51
180
0
ARC
8
0
10
27.43125
20
-60.675
40
1
50
0
51
90
0
ARC
8
0
10
15.43125
20
-72.675
40
1
50
180
51
270
0
ARC
8
0
10
27.43125
20
-72.675
40
1
50
270
51
0
0
LINE
8
0
10
7.16585
20
-60.9854
11
12.82065
21
-60.9854
0
LINE
8
0
10
12.82065
20
-60.9854
11
12.82065
21
-61.7982
0
LINE
8
0
10
12.82065
20
-61.7982
11
21.43125
21
-61.7982
0
LINE
8
0
10
21.43125
20
-72.4916
11
12.82065
21
-72.4916
0
LINE
8
0
10
12.82065
20
-72.4916
11
12.82065
21
-73.279
0
LINE
8
0
10
12.82065
20
-73.279
11
12.01725
21
-73.279
0
LINE
8
0
10
11.01725
20
-74.279
11
11.01725
21
-74.4474
0
LINE
8
0
10
11.01725
20
-74.4474
11
8.96925
21
-74.4474
0
LINE
8
0
10
7.96925
20
-73.4474
11
7.96925
21
-73.279
0
LINE
8
0
10
7.96925
20
-73.279
11
7.16585
21
-73.279
0
LINE
8
0
10
6.16585
20
-72.279
11
6.16585
21
-67.183
0
LINE
8
0
10
6.16585
20
-67.183
11
5.30225
21
-67.183
0
LINE
8
0
10
5.30225
20
-67.183
11
5.30225
21
-64.389
0
LINE
8
0
10
5.30225
20
-64.389
11
6.16585
21
-64.389
0
LINE
8
0
10
6.16585
20
-64.389
11
6.16585
21
-61.9854
0
ARC
8
0
10
12.01725
20
-74.279
40
1
50
90
51
180
0
ARC
8
0
10
8.96925
20
-73.4474
40
1
50
180
51
270
0
ARC
8
0
10
7.16585
20
-72.279
40
1
50
180
51
270
0
ARC
8
0
10
7.16585
20
-61.9854
40
1
50
90
51
180
0
LINE
8
0
10
35.69665
20
-60.9854
11
30.04185
21
-60.9854
0
LINE
8
0
10
30.04185
20
-60.9854
11
30.04185
21
-61.7982
0
LINE
8
0
10
30.04185
20
-61.7982
11
21.43125
21
-61.7982
0
LINE
8
0
10
21.43125
20
-72.4916
11
30.04185
21
-72.4916
0
LINE
8
0
10
30.04185
20
-72.4916
11
30.04185
21
-73.279
0
LINE
8
0
10
30.04185
20
-73.279
11
30.84525
21
-73.279
0
LINE
8
0
10
31.84525
20
-74.279
11
31.84525
21
-74.4474
0
LINE
8
0
10
31.84525
20
-74.4474
11
33.89325
21
-74.4474
0
LINE
8
0
10
34.89325
20
-73.4474
11
34.89325
21
-73.279
0
LINE
8
0
10
34.89325
20
-73.279
11
35.69665
21
-73.279
0
LINE
8
0
10
36.69665
20
-72.279
11
36.69665
21
-67.183
0
LINE
8
0
10
36.69665
20
-67.183
11
37.56025
21
-67.183
0
LINE
8
0
10
37.56025
20
-67.183
11
37.56025
21
-64.389
0
LINE
8
0
10
37.56025
20
-64.389
11
36.69665
21
-64.389
0
LINE
8
0
10
36.69665
20
-64.389
11
36.69665
21
-61.9854
0
ARC
8
0
10
30.84525
20
-74.279
40
1
50
0
51
90
0
ARC
8
0
10
33.89325
20
-73.4474
40
1
50
270
51
0
0
ARC
8
0
10
35.69665
20
-72.279
40
1
50
270
51
0
0
ARC
8
0
10
35.69665
20
-61.9854
40
1
50
0
51
90
0
LINE
8
0
10
46.3875
20
-59.675
11
58.3875
21
-59.675
0
LINE
8
0
10
46.3875
20
-73.675
11
58.3875
21
-73.675
0
LINE
8
0
10
45.3875
20
-60.675
11
45.3875
21
-72.675
0
LINE
8
0
10
59.3875
20
-60.675
11
59.3875
21
-72.675
0
ARC
8
0
10
46.3875
20
-60.675
40
1
50
90
51
180
0
ARC
8
0
10
58.3875
20
-60.675
40
1
50
0
51
90
0
ARC
8
0
10
46.3875
20
-72.675
40
1
50
180
51
270
0
ARC
8
0
10
58.3875
20
-72.675
40
1
50
270
51
0
0
LINE
8
0
10
65.4375
20
-59.675
11
77.4375
21
-59.675
0
LINE
8
0
10
65.4375
20
-73.675
11
77.4375
21
-73.675
0
LINE
8
0
10
64.4375
20
-60.675
11
64.4375
21
-72.675
0
LINE
8
0
10
78.4375
20
-60.675
11
78.4375
21
-72.675
0
ARC
8
0
10
65.4375
20
-60.675
40
1
50
90
51
180
0
ARC
8
0
10
77.4375
20
-60.675
40
1
50
0
51
90
0
ARC
8
0
10
65.4375
20
-72.675
40
1
50
180
51
270
0
ARC
8
0
10
77.4375
20
-72.675
40
1
50
270
51
0
0
LINE
8
0
10
84.4875
20
-59.675
11
96.4875
21
-59.675
0
LINE
8
0
10
84.4875
20
-73.675
11
96.4875
21
-73.675
0
LINE
8
0
10
83.4875
20
-60.675
11
83.4875
21
-72.675
0
LINE
8
0
10
97.4875
20
-60.675
11
97.4875
21
-72.675
0
ARC
8
0
10
84.4875
20
-60.675
40
1
50
90
51
180
0
ARC
8
0
10
96.4875
20
-60.675
40
1
50
0
51
90
0
ARC
8
0
10
84.4875
20
-72.675
40
1
50
180
51
270
0
ARC
8
0
10
96.4875
20
-72.675
40
1
50
270
51
0
0
LINE
8
0
10
103.5375
20
-59.675
11
115.5375
21
-59.675
0
LINE
8
0
10
103.5375
20
-73.675
11
115.5375
21
-73.675
0
LINE
8
0
10
102.5375
20
-60.675
11
102.5375
21
-72.675
0
LINE
8
0
10
116.5375
20
-60.675
11
116.5375
21
-72.675
0
ARC
8
0
10
103.5375
20
-60.675
40
1
50
90
51
180
0
ARC
8
0
10
115.5375
20
-60.675
40
1
50
0
51
90
0
ARC
8
0
10
103.5375
20
-72.675
40
1
50
180
51
270
0
ARC
8
0
10
115.5375
20
-72.675
40
1
50
270
51
0
0
LINE
8
0
10
122.5875
20
-59.675
11
134.5875
21
-59.675
0
LINE
8
0
10
122.5875
20
-73.675
11
134.5875
21
-73.675
0
LINE
8
0
10
121.5875
20
-60.675
11
121.5875
21
-72.675
0
LINE
8
0
10
135.5875
20
-60.675
11
135.5875
21
-72.675
0
ARC
8
0
10
122.5875
20
-60.675
40
1
50
90
51
180
0
ARC
8
0
10
134.5875
20
-60.675
40
1
50
0
51
90
0
ARC
8
0
10
122.5875
20
-72.675
40
1
50
180
51
270
0
ARC
8
0
10
134.5875
20
-72.675
40
1
50
270
51
0
0
LINE
8
0
10
141.6375
20
-59.675
11
153.6375
21
-59.675
0
LINE
8
0
10
141.6375
20
-73.675
11
153.6375
21
-73.675
0
LINE
8
0
10
140.6375
20
-60.675
11
140.6375
21
-72.675
0
LINE
8
0
10
154.6375
20
-60.675
11
154.6375
21
-72.675
0
ARC
8
0
10
141.6375
20
-60.675
40
1
50
90
51
180
0
ARC
8
0
10
153.6375
20
-60.675
40
1
50
0
51
90
0
ARC
8
0
10
141.6375
20
-72.675
40
1
50
180
51
270
0
ARC
8
0
10
153.6375
20
-72.675
40
1
50
270
51
0
0
LINE
8
0
10
160.6875
20
-59.675
11
172.6875
21
-59.675
0
LINE
8
0
10
160.6875
20
-73.675
11
172.6875
21
-73.675
0
LINE
8
0
10
159.6875
20
-60.675
11
159.6875
21
-72.675
0
LINE
8
0
10
173.6875
20
-60.675
11
173.6875
21
-72.675
0
ARC
8
0
10
160.6875
20
-60.675
40
1
50
90
51
180
0
ARC
8
0
10
172.6875
20
-60.675
40
1
50
0
51
90
0
ARC
8
0
10
160.6875
20
-72.675
40
1
50
180
51
270
0
ARC
8
0
10
172.6875
20
-72.675
40
1
50
270
51
0
0
LINE
8
0
10
179.7375
20
-59.675
11
191.7375
21
-59.675
0
LINE
8
0
10
179.7375
20
-73.675
11
191.7375
21
-73.675
0
LINE
8
0
10
178.7375
20
-60.675
11
178.7375
21
-72.675
0
LINE
8
0
10
192.7375
20
-60.675
11
192.7375
21
-72.675
0
ARC
8
0
10
179.7375
20
-60.675
40
1
50
90
51
180
0
ARC
8
0
10
191.7375
20
-60.675
40
1
50
0
51
90
0
ARC
8
0
10
179.7375
20
-72.675
40
1
50
180
51
270
0
ARC
8
0
10
191.7375
20
-72.675
40
1
50
270
51
0
0
LINE
8
0
10
198.7875
20
-59.675
11
210.7875
21
-59.675
0
LINE
8
0
10
198.7875
20
-73.675
11
210.7875
21
-73.675
0
LINE
8
0
10
197.7875
20
-60.675
11
197.7875
21
-72.675
0
LINE
8
0
10
211.7875
20
-60.675
11
211.7875
21
-72.675
0
ARC
8
0
10
198.7875
20
-60.675
40
1
50
90
51
180
0
ARC
8
0
10
210.7875
20
-60.675
40
1
50
0
51
90
0
ARC
8
0
10
198.7875
20
-72.675
40
1
50
180
51
270
0
ARC
8
0
10
210.7875
20
-72.675
40
1
50
270
51
0
0
LINE
8
0
10
217.8375
20
-59.675
11
229.8375
21
-59.675
0
LINE
8
0
10
217.8375
20
-73.675
11
229.8375
21
-73.675
0
LINE
8
0
10
216.8375
20
-60.675
11
216.8375
21
-72.675
0
LINE
8
0
10
230.8375
20
-60.675
11
230.8375
21
-72.675
0
ARC
8
0
10
217.8375
20
-60.675
40
1
50
90
51
180
0
ARC
8
0
10
229.8375
20
-60.675
40
1
50
0
51
90
0
ARC
8
0
10
217.8375
20
-72.675
40
1
50
180
51
270
0
ARC
8
0
10
229.8375
20
-72.675
40
1
50
270
51
0
0
LINE
8
0
10
244.03125
20
-59.675
11
256.03125
21
-59.675
0
LINE
8
0
10
244.03125
20
-73.675
11
256.03125
21
-73.675
0
LINE
8
0
10
243.03125
20
-60.675
11
243.03125
21
-72.675
0
LINE
8
0
10
257.03125
20
-60.675
11
257.03125
21
-72.675
0
ARC
8
0
10
244.03125
20
-60.675
40
1
50
90
51
180
0
ARC
8
0
10
256.03125
20
-60.675
40
1
50
0
51
90
0
ARC
8
0
10
244.03125
20
-72.675
40
1
50
180
51
270
0
ARC
8
0
10
256.03125
20
-72.675
40
1
50
270
51
0
0
LINE
8
0
10
270.225
20
-59.675
11
282.225
21
-59.675
0
LINE
8
0
10
270.225
20
-73.675
11
282.225
21
-73.675
0
LINE
8
0
10
269.225
20
-60.675
11
269.225
21
-72.675
0
LINE
8
0
10
283.225
20
-60.675
11
283.225
21
-72.675
0
ARC
8
0
10
270.225
20
-60.675
40
1
50
90
51
180
0
ARC
8
0
10
282.225
20
-60.675
40
1
50
0
51
90
0
ARC
8
0
10
270.225
20
-72.675
40
1
50
180
51
270
0
ARC
8
0
10
282.225
20
-72.675
40
1
50
270
51
0
0
LINE
8
0
10
5.90625
20
-78.725
11
17.90625
21
-78.725
0
LINE
8
0
10
5.90625
20
-92.725
11
17.90625
21
-92.725
0
LINE
8
0
10
4.90625
20
-79.725
11
4.90625
21
-91.725
0
LINE
8
0
10
18.90625
20
-79.725
11
18.90625
21
-91.725
0
ARC
8
0
10
5.90625
20
-79.725
40
1
50
90
51
180
0
ARC
8
0
10
17.90625
20
-79.725
40
1
50
0
51
90
0
ARC
8
0
10
5.90625
20
-91.725
40
1
50
180
51
270
0
ARC
8
0
10
17.90625
20
-91.725
40
1
50
270
51
0
0
LINE
8
0
10
29.71875
20
-78.725
11
41.71875
21
-78.725
0
LINE
8
0
10
29.71875
20
-92.725
11
41.71875
21
-92.725
0
LINE
8
0
10
28.71875
20
-79.725
11
28.71875
21
-91.725
0
LINE
8
0
10
42.71875
20
-79.725
11
42.71875
21
-91.725
0
ARC
8
0
10
29.71875
20
-79.725
40
1
50
90
51
180
0
ARC
8
0
10
41.71875
20
-79.725
40
1
50
0
51
90
0
ARC
8
0
10
29.71875
20
-91.725
40
1
50
180
51
270
0
ARC
8
0
10
41.71875
20
-91.725
40
1
50
270
51
0
0
LINE
8
0
10
53.53125
20
-78.725
11
65.53125
21
-78.725
0
LINE
8
0
10
53.53125
20
-92.725
11
65.53125
21
-92.725
0
LINE
8
0
10
52.53125
20
-79.725
11
52.53125
21
-91.725
0
LINE
8
0
10
66.53125
20
-79.725
11
66.53125
21
-91.725
0
ARC
8
0
10
53.53125
20
-79.725
40
1
50
90
51
180
0
ARC
8
0
10
65.53125
20
-79.725
40
1
50
0
51
90
0
ARC
8
0
10
53.53125
20
-91.725
40
1
50
180
51
270
0
ARC
8
0
10
65.53125
20
-91.725
40
1
50
270
51
0
0
LINE
8
0
10
86.86875
20
-78.725
11
98.86875
21
-78.725
0
LINE
8
0
10
86.86875
20
-92.725
11
98.86875
21
-92.725
0
LINE
8
0
10
85.86875
20
-79.725
11
85.86875
21
-91.725
0
LINE
8
0
10
99.86875
20
-79.725
11
99.86875
21
-91.725
0
ARC
8
0
10
86.86875
20
-79.725
40
1
50
90
51
180
0
ARC
8
0
10
98.86875
20
-79.725
40
1
50
0
51
90
0
ARC
8
0
10
86.86875
20
-91.725
40
1
50
180
51
270
0
ARC
8
0
10
98.86875
20
-91.725
40
1
50
270
51
0
0
LINE
8
0
10
78.60335
20
-80.0354
11
84.25815
21
-80.0354
0
LINE
8
0
10
84.25815
20
-80.0354
11
84.25815
21
-80.8482
0
LINE
8
0
10
84.25815
20
-80.8482
11
92.86875
21
-80.8482
0
LINE
8
0
10
92.86875
20
-91.5416
11
84.25815
21
-91.5416
0
LINE
8
0
10
84.25815
20
-91.5416
11
84.25815
21
-92.329
0
LINE
8
0
10
84.25815
20
-92.329
11
83.45475
21
-92.329
0
LINE
8
0
10
82.45475
20
-93.329
11
82.45475
21
-93.4974
0
LINE
8
0
10
82.45475
20
-93.4974
11
80.40675
21
-93.4974
0
LINE
8
0
10
79.40675
20
-92.4974
11
79.40675
21
-92.329
0
LINE
8
0
10
79.40675
20
-92.329
11
78.60335
21
-92.329
0
LINE
8
0
10
77.60335
20
-91.329
11
77.60335
21
-86.233
0
LINE
8
0
10
77.60335
20
-86.233
11
76.73975
21
-86.233
0
LINE
8
0
10
76.73975
20
-86.233
11
76.73975
21
-83.439
0
LINE
8
0
10
76.73975
20
-83.439
11
77.60335
21
-83.439
0
LINE
8
0
10
77.60335
20
-83.439
11
77.60335
21
-81.0354
0
ARC
8
0
10
83.45475
20
-93.329
40
1
50
90
51
180
0
ARC
8
0
10
80.40675
20
-92.4974
40
1
50
180
51
270
0
ARC
8
0
10
78.60335
20
-91.329
40
1
50
180
51
270
0
ARC
8
0
10
78.60335
20
-81.0354
40
1
50
90
51
180
0
LINE
8
0
10
107.13415
20
-80.0354
11
101.47935
21
-80.0354
0
LINE
8
0
10
101.47935
20
-80.0354
11
101.47935
21
-80.8482
0
LINE
8
0
10
101.47935
20
-80.8482
11
92.86875
21
-80.8482
0
LINE
8
0
10
92.86875
20
-91.5416
11
101.47935
21
-91.5416
0
LINE
8
0
10
101.47935
20
-91.5416
11
101.47935
21
-92.329
0
LINE
8
0
10
101.47935
20
-92.329
11
102.28275
21
-92.329
0
LINE
8
0
10
103.28275
20
-93.329
11
103.28275
21
-93.4974
0
LINE
8
0
10
103.28275
20
-93.4974
11
105.33075
21
-93.4974
0
LINE
8
0
10
106.33075
20
-92.4974
11
106.33075
21
-92.329
0
LINE
8
0
10
106.33075
20
-92.329
11
107.13415
21
-92.329
0
LINE
8
0
10
108.13415
20
-91.329
11
108.13415
21
-86.233
0
LINE
8
0
10
108.13415
20
-86.233
11
108.99775
21
-86.233
0
LINE
8
0
10
108.99775
20
-86.233
11
108.99775
21
-83.439
0
LINE
8
0
10
108.99775
20
-83.439
11
108.13415
21
-83.439
0
LINE
8
0
10
108.13415
20
-83.439
11
108.13415
21
-81.0354
0
ARC
8
0
10
102.28275
20
-93.329
40
1
50
0
51
90
0
ARC
8
0
10
105.33075
20
-92.4974
40
1
50
270
51
0
0
ARC
8
0
10
107.13415
20
-91.329
40
1
50
270
51
0
0
ARC
8
0
10
107.13415
20
-81.0354
40
1
50
0
51
90
0
LINE
8
0
10
120.20625
20
-78.725
11
132.20625
21
-78.725
0
LINE
8
0
10
120.20625
20
-92.725
11
132.20625
21
-92.725
0
LINE
8
0
10
119.20625
20
-79.725
11
119.20625
21
-91.725
0
LINE
8
0
10
133.20625
20
-79.725
11
133.20625
21
-91.725
0
ARC
8
0
10
120.20625
20
-79.725
40
1
50
90
51
180
0
ARC
8
0
10
132.20625
20
-79.725
40
1
50
0
51
90
0
ARC
8
0
10
120.20625
20
-91.725
40
1
50
180
51
270
0
ARC
8
0
10
132.20625
20
-91.725
40
1
50
270
51
0
0
LINE
8
0
10
158.30625
20
-78.725
11
170.30625
21
-78.725
0
LINE
8
0
10
158.30625
20
-92.725
11
170.30625
21
-92.725
0
LINE
8
0
10
157.30625
20
-79.725
11
157.30625
21
-91.725
0
LINE
8
0
10
171.30625
20
-79.725
11
171.30625
21
-91.725
0
ARC
8
0
10
158.30625
20
-79.725
40
1
50
90
51
180
0
ARC
8
0
10
170.30625
20
-79.725
40
1
50
0
51
90
0
ARC
8
0
10
158.30625
20
-91.725
40
1
50
180
51
270
0
ARC
8
0
10
170.30625
20
-91.725
40
1
50
270
51
0
0
LINE
8
0
10
150.04085
20
-80.0354
11
155.69565
21
-80.0354
0
LINE
8
0
10
155.69565
20
-80.0354
11
155.69565
21
-80.8482
0
LINE
8
0
10
155.69565
20
-80.8482
11
164.30625
21
-80.8482
0
LINE
8
0
10
164.30625
20
-91.5416
11
155.69565
21
-91.5416
0
LINE
8
0
10
155.69565
20
-91.5416
11
155.69565
21
-92.329
0
LINE
8
0
10
155.69565
20
-92.329
11
154.89225
21
-92.329
0
LINE
8
0
10
153.89225
20
-93.329
11
153.89225
21
-93.4974
0
LINE
8
0
10
153.89225
20
-93.4974
11
151.84425
21
-93.4974
0
LINE
8
0
10
150.84425
20
-92.4974
11
150.84425
21
-92.329
0
LINE
8
0
10
150.84425
20
-92.329
11
150.04085
21
-92.329
0
LINE
8
0
10
149.04085
20
-91.329
11
149.04085
21
-86.233
0
LINE
8
0
10
149.04085
20
-86.233
11
148.17725
21
-86.233
0
LINE
8
0
10
148.17725
20
-86.233
11
148.17725
21
-83.439
0
LINE
8
0
10
148.17725
20
-83.439
11
149.04085
21
-83.439
0
LINE
8
0
10
149.04085
20
-83.439
11
149.04085
21
-81.0354
0
ARC
8
0
10
154.89225
20
-93.329
40
1
50
90
51
180
0
ARC
8
0
10
151.84425
20
-92.4974
40
1
50
180
51
270
0
ARC
8
0
10
150.04085
20
-91.329
40
1
50
180
51
270
0
ARC
8
0
10
150.04085
20
-81.0354
40
1
50
90
51
180
0
LINE
8
0
10
178.57165
20
-80.0354
11
172.91685
21
-80.0354
0
LINE
8
0
10
172.91685
20
-80.0354
11
172.91685
21
-80.8482
0
LINE
8
0
10
172.91685
20
-80.8482
11
164.30625
21
-80.8482
0
LINE
8
0
10
164.30625
20
-91.5416
11
172.91685
21
-91.5416
0
LINE
8
0
10
172.91685
20
-91.5416
11
172.91685
21
-92.329
0
LINE
8
0
10
172.91685
20
-92.329
11
173.72025
21
-92.329
0
LINE
8
0
10
174.72025
20
-93.329
11
174.72025
21
-93.4974
0
LINE
8
0
10
174.72025
20
-93.4974
11
176.76825
21
-93.4974
0
LINE
8
0
10
177.76825
20
-92.4974
11
177.76825
21
-92.329
0
LINE
8
0
10
177.76825
20
-92.329
11
178.57165
21
-92.329
0
LINE
8
0
10
179.57165
20
-91.329
11
179.57165
21
-86.233
0
LINE
8
0
10
179.57165
20
-86.233
11
180.43525
21
-86.233
0
LINE
8
0
10
180.43525
20
-86.233
11
180.43525
21
-83.439
0
LINE
8
0
10
180.43525
20
-83.439
11
179.57165
21
-83.439
0
LINE
8
0
10
179.57165
20
-83.439
11
179.57165
21
-81.0354
0
ARC
8
0
10
173.72025
20
-93.329
40
1
50
0
51
90
0
ARC
8
0
10
176.76825
20
-92.4974
40
1
50
270
51
0
0
ARC
8
0
10
178.57165
20
-91.329
40
1
50
270
51
0
0
ARC
8
0
10
178.57165
20
-81.0354
40
1
50
0
51
90
0
LINE
8
0
10
194.025
20
-78.725
11
206.025
21
-78.725
0
LINE
8
0
10
194.025
20
-92.725
11
206.025
21
-92.725
0
LINE
8
0
10
193.025
20
-79.725
11
193.025
21
-91.725
0
LINE
8
0
10
207.025
20
-79.725
11
207.025
21
-91.725
0
ARC
8
0
10
194.025
20
-79.725
40
1
50
90
51
180
0
ARC
8
0
10
206.025
20
-79.725
40
1
50
0
51
90
0
ARC
8
0
10
194.025
20
-91.725
40
1
50
180
51
270
0
ARC
8
0
10
206.025
20
-91.725
40
1
50
270
51
0
0
LINE
8
0
10
213.075
20
-78.725
11
225.075
21
-78.725
0
LINE
8
0
10
213.075
20
-92.725
11
225.075
21
-92.725
0
LINE
8
0
10
212.075
20
-79.725
11
212.075
21
-91.725
0
LINE
8
0
10
226.075
20
-79.725
11
226.075
21
-91.725
0
ARC
8
0
10
213.075
20
-79.725
40
1
50
90
51
180
0
ARC
8
0
10
225.075
20
-79.725
40
1
50
0
51
90
0
ARC
8
0
10
213.075
20
-91.725
40
1
50
180
51
270
0
ARC
8
0
10
225.075
20
-91.725
40
1
50
270
51
0
0
LINE
8
0
10
232.125
20
-78.725
11
244.125
21
-78.725
0
LINE
8
0
10
232.125
20
-92.725
11
244.125
21
-92.725
0
LINE
8
0
10
231.125
20
-79.725
11
231.125
21
-91.725
0
LINE
8
0
10
245.125
20
-79.725
11
245.125
21
-91.725
0
ARC
8
0
10
232.125
20
-79.725
40
1
50
90
51
180
0
ARC
8
0
10
244.125
20
-79.725
40
1
50
0
51
90
0
ARC
8
0
10
232.125
20
-91.725
40
1
50
180
51
270
0
ARC
8
0
10
244.125
20
-91.725
40
1
50
270
51
0
0
LINE
8
0
10
251.175
20
-78.725
11
263.175
21
-78.725
0
LINE
8
0
10
251.175
20
-92.725
11
263.175
21
-92.725
0
LINE
8
0
10
250.175
20
-79.725
11
250.175
21
-91.725
0
LINE
8
0
10
264.175
20
-79.725
11
264.175
21
-91.725
0
ARC
8
0
10
251.175
20
-79.725
40
1
50
90
51
180
0
ARC
8
0
10
263.175
20
-79.725
40
1
50
0
51
90
0
ARC
8
0
10
251.175
20
-91.725
40
1
50
180
51
270
0
ARC
8
0
10
263.175
20
-91.725
40
1
50
270
51
0
0
LINE
8
0
10
270.225
20
-78.725
11
282.225
21
-78.725
0
LINE
8
0
10
270.225
20
-92.725
11
282.225
21
-92.725
0
LINE
8
0
10
269.225
20
-79.725
11
269.225
21
-91.725
0
LINE
8
0
10
283.225
20
-79.725
11
283.225
21
-91.725
0
ARC
8
0
10
270.225
20
-79.725
40
1
50
90
51
180
0
ARC
8
0
10
282.225
20
-79.725
40
1
50
0
51
90
0
ARC
8
0
10
270.225
20
-91.725
40
1
50
180
51
270
0
ARC
8
0
10
282.225
20
-91.725
40
1
50
270
51
0
0
LINE
8
0
10
0
20
-95.25
11
285.75
21
-95.25
0
LINE
8
0
10
0
20
0
11
285.75
21
0
0
LINE
8
0
10
0
20
-95.25
11
0
21
0
0
LINE
8
0
10
285.75
20
-95.25
11
285.75
21
0
0
ENDSEC
0
EOF