0
SECTION
2
HEADER
9
$INSUNITS
70
4
0
ENDSEC
0
SECTION
2
TABLES
0
TABLE
2
LTYPE
0
LTYPE
72
65
70
64
2
CONTINUOUS
3
______
73
0
40
0
0
ENDTAB
0
TABLE
2
LAYER
0
ENDTAB
0
ENDSEC
0
SECTION
2
ENTITIES
0
LINE
8
0
10
3.225
20
-2.525
11
15.825
21
-2.525
0
LINE
8
0
10
3.225
20
-16.525
11
15.825
21
-16.525
0
LINE
8
0
10
2.225
20
-3.525
11
2.225
21
-15.525
0
LINE
8
0
10
16.825
20
-3.525
11
16.825
21
-15.525
0
ARC
8
0
10
3.225
20
-3.525
40
1
50
90
51
180
0
ARC
8
0
10
15.825
20
-3.525
40
1
50
0
51
90
0
ARC
8
0
10
3.225
20
-15.525
40
1
50
180
51
270
0
ARC
8
0
10
15.825
20
-15.525
40
1
50
270
51
0
0
LINE
8
0
10
22.275
20
-2.525
11
34.875
21
-2.525
0
LINE
8
0
10
22.275
20
-16.525
11
34.875
21
-16.525
0
LINE
8
0
10
21.275
20
-3.525
11
21.275
21
-15.525
0
LINE
8
0
10
35.875
20
-3.525
11
35.875
21
-15.525
0
ARC
8
0
10
22.275
20
-3.525
40
1
50
90
51
180
0
ARC
8
0
10
34.875
20
-3.525
40
1
50
0
51
90
0
ARC
8
0
10
22.275
20
-15.525
40
1
50
180
51
270
0
ARC
8
0
10
34.875
20
-15.525
40
1
50
270
51
0
0
LINE
8
0
10
41.325
20
-2.525
11
53.925
21
-2.525
0
LINE
8
0
10
41.325
20
-16.525
11
53.925
21
-16.525
0
LINE
8
0
10
40.325
20
-3.525
11
40.325
21
-15.525
0
LINE
8
0
10
54.925
20
-3.525
11
54.925
21
-15.525
0
ARC
8
0
10
41.325
20
-3.525
40
1
50
90
51
180
0
ARC
8
0
10
53.925
20
-3.525
40
1
50
0
51
90
0
ARC
8
0
10
41.325
20
-15.525
40
1
50
180
51
270
0
ARC
8
0
10
53.925
20
-15.525
40
1
50
270
51
0
0
LINE
8
0
10
60.375
20
-2.525
11
72.975
21
-2.525
0
LINE
8
0
10
60.375
20
-16.525
11
72.975
21
-16.525
0
LINE
8
0
10
59.375
20
-3.525
11
59.375
21
-15.525
0
LINE
8
0
10
73.975
20
-3.525
11
73.975
21
-15.525
0
ARC
8
0
10
60.375
20
-3.525
40
1
50
90
51
180
0
ARC
8
0
10
72.975
20
-3.525
40
1
50
0
51
90
0
ARC
8
0
10
60.375
20
-15.525
40
1
50
180
51
270
0
ARC
8
0
10
72.975
20
-15.525
40
1
50
270
51
0
0
LINE
8
0
10
79.425
20
-2.525
11
92.025
21
-2.525
0
LINE
8
0
10
79.425
20
-16.525
11
92.025
21
-16.525
0
LINE
8
0
10
78.425
20
-3.525
11
78.425
21
-15.525
0
LINE
8
0
10
93.025
20
-3.525
11
93.025
21
-15.525
0
ARC
8
0
10
79.425
20
-3.525
40
1
50
90
51
180
0
ARC
8
0
10
92.025
20
-3.525
40
1
50
0
51
90
0
ARC
8
0
10
79.425
20
-15.525
40
1
50
180
51
270
0
ARC
8
0
10
92.025
20
-15.525
40
1
50
270
51
0
0
LINE
8
0
10
98.475
20
-2.525
11
111.075
21
-2.525
0
LINE
8
0
10
98.475
20
-16.525
11
111.075
21
-16.525
0
LINE
8
0
10
97.475
20
-3.525
11
97.475
21
-15.525
0
LINE
8
0
10
112.075
20
-3.525
11
112.075
21
-15.525
0
ARC
8
0
10
98.475
20
-3.525
40
1
50
90
51
180
0
ARC
8
0
10
111.075
20
-3.525
40
1
50
0
51
90
0
ARC
8
0
10
98.475
20
-15.525
40
1
50
180
51
270
0
ARC
8
0
10
111.075
20
-15.525
40
1
50
270
51
0
0
LINE
8
0
10
117.525
20
-2.525
11
130.125
21
-2.525
0
LINE
8
0
10
117.525
20
-16.525
11
130.125
21
-16.525
0
LINE
8
0
10
116.525
20
-3.525
11
116.525
21
-15.525
0
LINE
8
0
10
131.125
20
-3.525
11
131.125
21
-15.525
0
ARC
8
0
10
117.525
20
-3.525
40
1
50
90
51
180
0
ARC
8
0
10
130.125
20
-3.525
40
1
50
0
51
90
0
ARC
8
0
10
117.525
20
-15.525
40
1
50
180
51
270
0
ARC
8
0
10
130.125
20
-15.525
40
1
50
270
51
0
0
LINE
8
0
10
136.575
20
-2.525
11
149.175
21
-2.525
0
LINE
8
0
10
136.575
20
-16.525
11
149.175
21
-16.525
0
LINE
8
0
10
135.575
20
-3.525
11
135.575
21
-15.525
0
LINE
8
0
10
150.175
20
-3.525
11
150.175
21
-15.525
0
ARC
8
0
10
136.575
20
-3.525
40
1
50
90
51
180
0
ARC
8
0
10
149.175
20
-3.525
40
1
50
0
51
90
0
ARC
8
0
10
136.575
20
-15.525
40
1
50
180
51
270
0
ARC
8
0
10
149.175
20
-15.525
40
1
50
270
51
0
0
LINE
8
0
10
155.625
20
-2.525
11
168.225
21
-2.525
0
LINE
8
0
10
155.625
20
-16.525
11
168.225
21
-16.525
0
LINE
8
0
10
154.625
20
-3.525
11
154.625
21
-15.525
0
LINE
8
0
10
169.225
20
-3.525
11
169.225
21
-15.525
0
ARC
8
0
10
155.625
20
-3.525
40
1
50
90
51
180
0
ARC
8
0
10
168.225
20
-3.525
40
1
50
0
51
90
0
ARC
8
0
10
155.625
20
-15.525
40
1
50
180
51
270
0
ARC
8
0
10
168.225
20
-15.525
40
1
50
270
51
0
0
LINE
8
0
10
174.675
20
-2.525
11
187.275
21
-2.525
0
LINE
8
0
10
174.675
20
-16.525
11
187.275
21
-16.525
0
LINE
8
0
10
173.675
20
-3.525
11
173.675
21
-15.525
0
LINE
8
0
10
188.275
20
-3.525
11
188.275
21
-15.525
0
ARC
8
0
10
174.675
20
-3.525
40
1
50
90
51
180
0
ARC
8
0
10
187.275
20
-3.525
40
1
50
0
51
90
0
ARC
8
0
10
174.675
20
-15.525
40
1
50
180
51
270
0
ARC
8
0
10
187.275
20
-15.525
40
1
50
270
51
0
0
LINE
8
0
10
193.725
20
-2.525
11
206.325
21
-2.525
0
LINE
8
0
10
193.725
20
-16.525
11
206.325
21
-16.525
0
LINE
8
0
10
192.725
20
-3.525
11
192.725
21
-15.525
0
LINE
8
0
10
207.325
20
-3.525
11
207.325
21
-15.525
0
ARC
8
0
10
193.725
20
-3.525
40
1
50
90
51
180
0
ARC
8
0
10
206.325
20
-3.525
40
1
50
0
51
90
0
ARC
8
0
10
193.725
20
-15.525
40
1
50
180
51
270
0
ARC
8
0
10
206.325
20
-15.525
40
1
50
270
51
0
0
LINE
8
0
10
212.775
20
-2.525
11
225.375
21
-2.525
0
LINE
8
0
10
212.775
20
-16.525
11
225.375
21
-16.525
0
LINE
8
0
10
211.775
20
-3.525
11
211.775
21
-15.525
0
LINE
8
0
10
226.375
20
-3.525
11
226.375
21
-15.525
0
ARC
8
0
10
212.775
20
-3.525
40
1
50
90
51
180
0
ARC
8
0
10
225.375
20
-3.525
40
1
50
0
51
90
0
ARC
8
0
10
212.775
20
-15.525
40
1
50
180
51
270
0
ARC
8
0
10
225.375
20
-15.525
40
1
50
270
51
0
0
LINE
8
0
10
231.825
20
-2.525
11
244.425
21
-2.525
0
LINE
8
0
10
231.825
20
-16.525
11
244.425
21
-16.525
0
LINE
8
0
10
230.825
20
-3.525
11
230.825
21
-15.525
0
LINE
8
0
10
245.425
20
-3.525
11
245.425
21
-15.525
0
ARC
8
0
10
231.825
20
-3.525
40
1
50
90
51
180
0
ARC
8
0
10
244.425
20
-3.525
40
1
50
0
51
90
0
ARC
8
0
10
231.825
20
-15.525
40
1
50
180
51
270
0
ARC
8
0
10
244.425
20
-15.525
40
1
50
270
51
0
0
LINE
8
0
10
260.4
20
-2.525
11
273
21
-2.525
0
LINE
8
0
10
260.4
20
-16.525
11
273
21
-16.525
0
LINE
8
0
10
259.4
20
-3.525
11
259.4
21
-15.525
0
LINE
8
0
10
274
20
-3.525
11
274
21
-15.525
0
ARC
8
0
10
260.4
20
-3.525
40
1
50
90
51
180
0
ARC
8
0
10
273
20
-3.525
40
1
50
0
51
90
0
ARC
8
0
10
260.4
20
-15.525
40
1
50
180
51
270
0
ARC
8
0
10
273
20
-15.525
40
1
50
270
51
0
0
LINE
8
0
10
7.9875
20
-21.575
11
20.5875
21
-21.575
0
LINE
8
0
10
7.9875
20
-35.575
11
20.5875
21
-35.575
0
LINE
8
0
10
6.9875
20
-22.575
11
6.9875
21
-34.575
0
LINE
8
0
10
21.5875
20
-22.575
11
21.5875
21
-34.575
0
ARC
8
0
10
7.9875
20
-22.575
40
1
50
90
51
180
0
ARC
8
0
10
20.5875
20
-22.575
40
1
50
0
51
90
0
ARC
8
0
10
7.9875
20
-34.575
40
1
50
180
51
270
0
ARC
8
0
10
20.5875
20
-34.575
40
1
50
270
51
0
0
LINE
8
0
10
31.8
20
-21.575
11
44.4
21
-21.575
0
LINE
8
0
10
31.8
20
-35.575
11
44.4
21
-35.575
0
LINE
8
0
10
30.8
20
-22.575
11
30.8
21
-34.575
0
LINE
8
0
10
45.4
20
-22.575
11
45.4
21
-34.575
0
ARC
8
0
10
31.8
20
-22.575
40
1
50
90
51
180
0
ARC
8
0
10
44.4
20
-22.575
40
1
50
0
51
90
0
ARC
8
0
10
31.8
20
-34.575
40
1
50
180
51
270
0
ARC
8
0
10
44.4
20
-34.575
40
1
50
270
51
0
0
LINE
8
0
10
50.85
20
-21.575
11
63.45
21
-21.575
0
LINE
8
0
10
50.85
20
-35.575
11
63.45
21
-35.575
0
LINE
8
0
10
49.85
20
-22.575
11
49.85
21
-34.575
0
LINE
8
0
10
64.45
20
-22.575
11
64.45
21
-34.575
0
ARC
8
0
10
50.85
20
-22.575
40
1
50
90
51
180
0
ARC
8
0
10
63.45
20
-22.575
40
1
50
0
51
90
0
ARC
8
0
10
50.85
20
-34.575
40
1
50
180
51
270
0
ARC
8
0
10
63.45
20
-34.575
40
1
50
270
51
0
0
LINE
8
0
10
69.9
20
-21.575
11
82.5
21
-21.575
0
LINE
8
0
10
69.9
20
-35.575
11
82.5
21
-35.575
0
LINE
8
0
10
68.9
20
-22.575
11
68.9
21
-34.575
0
LINE
8
0
10
83.5
20
-22.575
11
83.5
21
-34.575
0
ARC
8
0
10
69.9
20
-22.575
40
1
50
90
51
180
0
ARC
8
0
10
82.5
20
-22.575
40
1
50
0
51
90
0
ARC
8
0
10
69.9
20
-34.575
40
1
50
180
51
270
0
ARC
8
0
10
82.5
20
-34.575
40
1
50
270
51
0
0
LINE
8
0
10
88.95
20
-21.575
11
101.55
21
-21.575
0
LINE
8
0
10
88.95
20
-35.575
11
101.55
21
-35.575
0
LINE
8
0
10
87.95
20
-22.575
11
87.95
21
-34.575
0
LINE
8
0
10
102.55
20
-22.575
11
102.55
21
-34.575
0
ARC
8
0
10
88.95
20
-22.575
40
1
50
90
51
180
0
ARC
8
0
10
101.55
20
-22.575
40
1
50
0
51
90
0
ARC
8
0
10
88.95
20
-34.575
40
1
50
180
51
270
0
ARC
8
0
10
101.55
20
-34.575
40
1
50
270
51
0
0
LINE
8
0
10
108
20
-21.575
11
120.6
21
-21.575
0
LINE
8
0
10
108
20
-35.575
11
120.6
21
-35.575
0
LINE
8
0
10
107
20
-22.575
11
107
21
-34.575
0
LINE
8
0
10
121.6
20
-22.575
11
121.6
21
-34.575
0
ARC
8
0
10
108
20
-22.575
40
1
50
90
51
180
0
ARC
8
0
10
120.6
20
-22.575
40
1
50
0
51
90
0
ARC
8
0
10
108
20
-34.575
40
1
50
180
51
270
0
ARC
8
0
10
120.6
20
-34.575
40
1
50
270
51
0
0
LINE
8
0
10
127.05
20
-21.575
11
139.65
21
-21.575
0
LINE
8
0
10
127.05
20
-35.575
11
139.65
21
-35.575
0
LINE
8
0
10
126.05
20
-22.575
11
126.05
21
-34.575
0
LINE
8
0
10
140.65
20
-22.575
11
140.65
21
-34.575
0
ARC
8
0
10
127.05
20
-22.575
40
1
50
90
51
180
0
ARC
8
0
10
139.65
20
-22.575
40
1
50
0
51
90
0
ARC
8
0
10
127.05
20
-34.575
40
1
50
180
51
270
0
ARC
8
0
10
139.65
20
-34.575
40
1
50
270
51
0
0
LINE
8
0
10
146.1
20
-21.575
11
158.7
21
-21.575
0
LINE
8
0
10
146.1
20
-35.575
11
158.7
21
-35.575
0
LINE
8
0
10
145.1
20
-22.575
11
145.1
21
-34.575
0
LINE
8
0
10
159.7
20
-22.575
11
159.7
21
-34.575
0
ARC
8
0
10
146.1
20
-22.575
40
1
50
90
51
180
0
ARC
8
0
10
158.7
20
-22.575
40
1
50
0
51
90
0
ARC
8
0
10
146.1
20
-34.575
40
1
50
180
51
270
0
ARC
8
0
10
158.7
20
-34.575
40
1
50
270
51
0
0
LINE
8
0
10
165.15
20
-21.575
11
177.75
21
-21.575
0
LINE
8
0
10
165.15
20
-35.575
11
177.75
21
-35.575
0
LINE
8
0
10
164.15
20
-22.575
11
164.15
21
-34.575
0
LINE
8
0
10
178.75
20
-22.575
11
178.75
21
-34.575
0
ARC
8
0
10
165.15
20
-22.575
40
1
50
90
51
180
0
ARC
8
0
10
177.75
20
-22.575
40
1
50
0
51
90
0
ARC
8
0
10
165.15
20
-34.575
40
1
50
180
51
270
0
ARC
8
0
10
177.75
20
-34.575
40
1
50
270
51
0
0
LINE
8
0
10
184.2
20
-21.575
11
196.8
21
-21.575
0
LINE
8
0
10
184.2
20
-35.575
11
196.8
21
-35.575
0
LINE
8
0
10
183.2
20
-22.575
11
183.2
21
-34.575
0
LINE
8
0
10
197.8
20
-22.575
11
197.8
21
-34.575
0
ARC
8
0
10
184.2
20
-22.575
40
1
50
90
51
180
0
ARC
8
0
10
196.8
20
-22.575
40
1
50
0
51
90
0
ARC
8
0
10
184.2
20
-34.575
40
1
50
180
51
270
0
ARC
8
0
10
196.8
20
-34.575
40
1
50
270
51
0
0
LINE
8
0
10
203.25
20
-21.575
11
215.85
21
-21.575
0
LINE
8
0
10
203.25
20
-35.575
11
215.85
21
-35.575
0
LINE
8
0
10
202.25
20
-22.575
11
202.25
21
-34.575
0
LINE
8
0
10
216.85
20
-22.575
11
216.85
21
-34.575
0
ARC
8
0
10
203.25
20
-22.575
40
1
50
90
51
180
0
ARC
8
0
10
215.85
20
-22.575
40
1
50
0
51
90
0
ARC
8
0
10
203.25
20
-34.575
40
1
50
180
51
270
0
ARC
8
0
10
215.85
20
-34.575
40
1
50
270
51
0
0
LINE
8
0
10
222.3
20
-21.575
11
234.9
21
-21.575
0
LINE
8
0
10
222.3
20
-35.575
11
234.9
21
-35.575
0
LINE
8
0
10
221.3
20
-22.575
11
221.3
21
-34.575
0
LINE
8
0
10
235.9
20
-22.575
11
235.9
21
-34.575
0
ARC
8
0
10
222.3
20
-22.575
40
1
50
90
51
180
0
ARC
8
0
10
234.9
20
-22.575
40
1
50
0
51
90
0
ARC
8
0
10
222.3
20
-34.575
40
1
50
180
51
270
0
ARC
8
0
10
234.9
20
-34.575
40
1
50
270
51
0
0
LINE
8
0
10
241.35
20
-21.575
11
253.95
21
-21.575
0
LINE
8
0
10
241.35
20
-35.575
11
253.95
21
-35.575
0
LINE
8
0
10
240.35
20
-22.575
11
240.35
21
-34.575
0
LINE
8
0
10
254.95
20
-22.575
11
254.95
21
-34.575
0
ARC
8
0
10
241.35
20
-22.575
40
1
50
90
51
180
0
ARC
8
0
10
253.95
20
-22.575
40
1
50
0
51
90
0
ARC
8
0
10
241.35
20
-34.575
40
1
50
180
51
270
0
ARC
8
0
10
253.95
20
-34.575
40
1
50
270
51
0
0
LINE
8
0
10
265.1625
20
-21.575
11
277.7625
21
-21.575
0
LINE
8
0
10
265.1625
20
-35.575
11
277.7625
21
-35.575
0
LINE
8
0
10
264.1625
20
-22.575
11
264.1625
21
-34.575
0
LINE
8
0
10
278.7625
20
-22.575
11
278.7625
21
-34.575
0
ARC
8
0
10
265.1625
20
-22.575
40
1
50
90
51
180
0
ARC
8
0
10
277.7625
20
-22.575
40
1
50
0
51
90
0
ARC
8
0
10
265.1625
20
-34.575
40
1
50
180
51
270
0
ARC
8
0
10
277.7625
20
-34.575
40
1
50
270
51
0
0
LINE
8
0
10
10.36875
20
-40.625
11
22.96875
21
-40.625
0
LINE
8
0
10
10.36875
20
-54.625
11
22.96875
21
-54.625
0
LINE
8
0
10
9.36875
20
-41.625
11
9.36875
21
-53.625
0
LINE
8
0
10
23.96875
20
-41.625
11
23.96875
21
-53.625
0
ARC
8
0
10
10.36875
20
-41.625
40
1
50
90
51
180
0
ARC
8
0
10
22.96875
20
-41.625
40
1
50
0
51
90
0
ARC
8
0
10
10.36875
20
-53.625
40
1
50
180
51
270
0
ARC
8
0
10
22.96875
20
-53.625
40
1
50
270
51
0
0
LINE
8
0
10
36.5625
20
-40.625
11
49.1625
21
-40.625
0
LINE
8
0
10
36.5625
20
-54.625
11
49.1625
21
-54.625
0
LINE
8
0
10
35.5625
20
-41.625
11
35.5625
21
-53.625
0
LINE
8
0
10
50.1625
20
-41.625
11
50.1625
21
-53.625
0
ARC
8
0
10
36.5625
20
-41.625
40
1
50
90
51
180
0
ARC
8
0
10
49.1625
20
-41.625
40
1
50
0
51
90
0
ARC
8
0
10
36.5625
20
-53.625
40
1
50
180
51
270
0
ARC
8
0
10
49.1625
20
-53.625
40
1
50
270
51
0
0
LINE
8
0
10
55.6125
20
-40.625
11
68.2125
21
-40.625
0
LINE
8
0
10
55.6125
20
-54.625
11
68.2125
21
-54.625
0
LINE
8
0
10
54.6125
20
-41.625
11
54.6125
21
-53.625
0
LINE
8
0
10
69.2125
20
-41.625
11
69.2125
21
-53.625
0
ARC
8
0
10
55.6125
20
-41.625
40
1
50
90
51
180
0
ARC
8
0
10
68.2125
20
-41.625
40
1
50
0
51
90
0
ARC
8
0
10
55.6125
20
-53.625
40
1
50
180
51
270
0
ARC
8
0
10
68.2125
20
-53.625
40
1
50
270
51
0
0
LINE
8
0
10
74.6625
20
-40.625
11
87.2625
21
-40.625
0
LINE
8
0
10
74.6625
20
-54.625
11
87.2625
21
-54.625
0
LINE
8
0
10
73.6625
20
-41.625
11
73.6625
21
-53.625
0
LINE
8
0
10
88.2625
20
-41.625
11
88.2625
21
-53.625
0
ARC
8
0
10
74.6625
20
-41.625
40
1
50
90
51
180
0
ARC
8
0
10
87.2625
20
-41.625
40
1
50
0
51
90
0
ARC
8
0
10
74.6625
20
-53.625
40
1
50
180
51
270
0
ARC
8
0
10
87.2625
20
-53.625
40
1
50
270
51
0
0
LINE
8
0
10
93.7125
20
-40.625
11
106.3125
21
-40.625
0
LINE
8
0
10
93.7125
20
-54.625
11
106.3125
21
-54.625
0
LINE
8
0
10
92.7125
20
-41.625
11
92.7125
21
-53.625
0
LINE
8
0
10
107.3125
20
-41.625
11
107.3125
21
-53.625
0
ARC
8
0
10
93.7125
20
-41.625
40
1
50
90
51
180
0
ARC
8
0
10
106.3125
20
-41.625
40
1
50
0
51
90
0
ARC
8
0
10
93.7125
20
-53.625
40
1
50
180
51
270
0
ARC
8
0
10
106.3125
20
-53.625
40
1
50
270
51
0
0
LINE
8
0
10
112.7625
20
-40.625
11
125.3625
21
-40.625
0
LINE
8
0
10
112.7625
20
-54.625
11
125.3625
21
-54.625
0
LINE
8
0
10
111.7625
20
-41.625
11
111.7625
21
-53.625
0
LINE
8
0
10
126.3625
20
-41.625
11
126.3625
21
-53.625
0
ARC
8
0
10
112.7625
20
-41.625
40
1
50
90
51
180
0
ARC
8
0
10
125.3625
20
-41.625
40
1
50
0
51
90
0
ARC
8
0
10
112.7625
20
-53.625
40
1
50
180
51
270
0
ARC
8
0
10
125.3625
20
-53.625
40
1
50
270
51
0
0
LINE
8
0
10
131.8125
20
-40.625
11
144.4125
21
-40.625
0
LINE
8
0
10
131.8125
20
-54.625
11
144.4125
21
-54.625
0
LINE
8
0
10
130.8125
20
-41.625
11
130.8125
21
-53.625
0
LINE
8
0
10
145.4125
20
-41.625
11
145.4125
21
-53.625
0
ARC
8
0
10
131.8125
20
-41.625
40
1
50
90
51
180
0
ARC
8
0
10
144.4125
20
-41.625
40
1
50
0
51
90
0
ARC
8
0
10
131.8125
20
-53.625
40
1
50
180
51
270
0
ARC
8
0
10
144.4125
20
-53.625
40
1
50
270
51
0
0
LINE
8
0
10
150.8625
20
-40.625
11
163.4625
21
-40.625
0
LINE
8
0
10
150.8625
20
-54.625
11
163.4625
21
-54.625
0
LINE
8
0
10
149.8625
20
-41.625
11
149.8625
21
-53.625
0
LINE
8
0
10
164.4625
20
-41.625
11
164.4625
21
-53.625
0
ARC
8
0
10
150.8625
20
-41.625
40
1
50
90
51
180
0
ARC
8
0
10
163.4625
20
-41.625
40
1
50
0
51
90
0
ARC
8
0
10
150.8625
20
-53.625
40
1
50
180
51
270
0
ARC
8
0
10
163.4625
20
-53.625
40
1
50
270
51
0
0
LINE
8
0
10
169.9125
20
-40.625
11
182.5125
21
-40.625
0
LINE
8
0
10
169.9125
20
-54.625
11
182.5125
21
-54.625
0
LINE
8
0
10
168.9125
20
-41.625
11
168.9125
21
-53.625
0
LINE
8
0
10
183.5125
20
-41.625
11
183.5125
21
-53.625
0
ARC
8
0
10
169.9125
20
-41.625
40
1
50
90
51
180
0
ARC
8
0
10
182.5125
20
-41.625
40
1
50
0
51
90
0
ARC
8
0
10
169.9125
20
-53.625
40
1
50
180
51
270
0
ARC
8
0
10
182.5125
20
-53.625
40
1
50
270
51
0
0
LINE
8
0
10
188.9625
20
-40.625
11
201.5625
21
-40.625
0
LINE
8
0
10
188.9625
20
-54.625
11
201.5625
21
-54.625
0
LINE
8
0
10
187.9625
20
-41.625
11
187.9625
21
-53.625
0
LINE
8
0
10
202.5625
20
-41.625
11
202.5625
21
-53.625
0
ARC
8
0
10
188.9625
20
-41.625
40
1
50
90
51
180
0
ARC
8
0
10
201.5625
20
-41.625
40
1
50
0
51
90
0
ARC
8
0
10
188.9625
20
-53.625
40
1
50
180
51
270
0
ARC
8
0
10
201.5625
20
-53.625
40
1
50
270
51
0
0
LINE
8
0
10
208.0125
20
-40.625
11
220.6125
21
-40.625
0
LINE
8
0
10
208.0125
20
-54.625
11
220.6125
21
-54.625
0
LINE
8
0
10
207.0125
20
-41.625
11
207.0125
21
-53.625
0
LINE
8
0
10
221.6125
20
-41.625
11
221.6125
21
-53.625
0
ARC
8
0
10
208.0125
20
-41.625
40
1
50
90
51
180
0
ARC
8
0
10
220.6125
20
-41.625
40
1
50
0
51
90
0
ARC
8
0
10
208.0125
20
-53.625
40
1
50
180
51
270
0
ARC
8
0
10
220.6125
20
-53.625
40
1
50
270
51
0
0
LINE
8
0
10
227.0625
20
-40.625
11
239.6625
21
-40.625
0
LINE
8
0
10
227.0625
20
-54.625
11
239.6625
21
-54.625
0
LINE
8
0
10
226.0625
20
-41.625
11
226.0625
21
-53.625
0
LINE
8
0
10
240.6625
20
-41.625
11
240.6625
21
-53.625
0
ARC
8
0
10
227.0625
20
-41.625
40
1
50
90
51
180
0
ARC
8
0
10
239.6625
20
-41.625
40
1
50
0
51
90
0
ARC
8
0
10
227.0625
20
-53.625
40
1
50
180
51
270
0
ARC
8
0
10
239.6625
20
-53.625
40
1
50
270
51
0
0
LINE
8
0
10
258.01875
20
-40.625
11
270.61875
21
-40.625
0
LINE
8
0
10
258.01875
20
-54.625
11
270.61875
21
-54.625
0
LINE
8
0
10
257.01875
20
-41.625
11
257.01875
21
-53.625
0
LINE
8
0
10
271.61875
20
-41.625
11
271.61875
21
-53.625
0
ARC
8
0
10
258.01875
20
-41.625
40
1
50
90
51
180
0
ARC
8
0
10
270.61875
20
-41.625
40
1
50
0
51
90
0
ARC
8
0
10
258.01875
20
-53.625
40
1
50
180
51
270
0
ARC
8
0
10
270.61875
20
-53.625
40
1
50
270
51
0
0
LINE
8
0
10
15.13125
20
-59.675
11
27.73125
21
-59.675
0
LINE
8
0
10
15.13125
20
-73.675
11
27.73125
21
-73.675
0
LINE
8
0
10
14.13125
20
-60.675
11
14.13125
21
-72.675
0
LINE
8
0
10
28.73125
20
-60.675
11
28.73125
21
-72.675
0
ARC
8
0
10
15.13125
20
-60.675
40
1
50
90
51
180
0
ARC
8
0
10
27.73125
20
-60.675
40
1
50
0
51
90
0
ARC
8
0
10
15.13125
20
-72.675
40
1
50
180
51
270
0
ARC
8
0
10
27.73125
20
-72.675
40
1
50
270
51
0
0
LINE
8
0
10
46.0875
20
-59.675
11
58.6875
21
-59.675
0
LINE
8
0
10
46.0875
20
-73.675
11
58.6875
21
-73.675
0
LINE
8
0
10
45.0875
20
-60.675
11
45.0875
21
-72.675
0
LINE
8
0
10
59.6875
20
-60.675
11
59.6875
21
-72.675
0
ARC
8
0
10
46.0875
20
-60.675
40
1
50
90
51
180
0
ARC
8
0
10
58.6875
20
-60.675
40
1
50
0
51
90
0
ARC
8
0
10
46.0875
20
-72.675
40
1
50
180
51
270
0
ARC
8
0
10
58.6875
20
-72.675
40
1
50
270
51
0
0
LINE
8
0
10
65.1375
20
-59.675
11
77.7375
21
-59.675
0
LINE
8
0
10
65.1375
20
-73.675
11
77.7375
21
-73.675
0
LINE
8
0
10
64.1375
20
-60.675
11
64.1375
21
-72.675
0
LINE
8
0
10
78.7375
20
-60.675
11
78.7375
21
-72.675
0
ARC
8
0
10
65.1375
20
-60.675
40
1
50
90
51
180
0
ARC
8
0
10
77.7375
20
-60.675
40
1
50
0
51
90
0
ARC
8
0
10
65.1375
20
-72.675
40
1
50
180
51
270
0
ARC
8
0
10
77.7375
20
-72.675
40
1
50
270
51
0
0
LINE
8
0
10
84.1875
20
-59.675
11
96.7875
21
-59.675
0
LINE
8
0
10
84.1875
20
-73.675
11
96.7875
21
-73.675
0
LINE
8
0
10
83.1875
20
-60.675
11
83.1875
21
-72.675
0
LINE
8
0
10
97.7875
20
-60.675
11
97.7875
21
-72.675
0
ARC
8
0
10
84.1875
20
-60.675
40
1
50
90
51
180
0
ARC
8
0
10
96.7875
20
-60.675
40
1
50
0
51
90
0
ARC
8
0
10
84.1875
20
-72.675
40
1
50
180
51
270
0
ARC
8
0
10
96.7875
20
-72.675
40
1
50
270
51
0
0
LINE
8
0
10
103.2375
20
-59.675
11
115.8375
21
-59.675
0
LINE
8
0
10
103.2375
20
-73.675
11
115.8375
21
-73.675
0
LINE
8
0
10
102.2375
20
-60.675
11
102.2375
21
-72.675
0
LINE
8
0
10
116.8375
20
-60.675
11
116.8375
21
-72.675
0
ARC
8
0
10
103.2375
20
-60.675
40
1
50
90
51
180
0
ARC
8
0
10
115.8375
20
-60.675
40
1
50
0
51
90
0
ARC
8
0
10
103.2375
20
-72.675
40
1
50
180
51
270
0
ARC
8
0
10
115.8375
20
-72.675
40
1
50
270
51
0
0
LINE
8
0
10
122.2875
20
-59.675
11
134.8875
21
-59.675
0
LINE
8
0
10
122.2875
20
-73.675
11
134.8875
21
-73.675
0
LINE
8
0
10
121.2875
20
-60.675
11
121.2875
21
-72.675
0
LINE
8
0
10
135.8875
20
-60.675
11
135.8875
21
-72.675
0
ARC
8
0
10
122.2875
20
-60.675
40
1
50
90
51
180
0
ARC
8
0
10
134.8875
20
-60.675
40
1
50
0
51
90
0
ARC
8
0
10
122.2875
20
-72.675
40
1
50
180
51
270
0
ARC
8
0
10
134.8875
20
-72.675
40
1
50
270
51
0
0
LINE
8
0
10
141.3375
20
-59.675
11
153.9375
21
-59.675
0
LINE
8
0
10
141.3375
20
-73.675
11
153.9375
21
-73.675
0
LINE
8
0
10
140.3375
20
-60.675
11
140.3375
21
-72.675
0
LINE
8
0
10
154.9375
20
-60.675
11
154.9375
21
-72.675
0
ARC
8
0
10
141.3375
20
-60.675
40
1
50
90
51
180
0
ARC
8
0
10
153.9375
20
-60.675
40
1
50
0
51
90
0
ARC
8
0
10
141.3375
20
-72.675
40
1
50
180
51
270
0
ARC
8
0
10
153.9375
20
-72.675
40
1
50
270
51
0
0
LINE
8
0
10
160.3875
20
-59.675
11
172.9875
21
-59.675
0
LINE
8
0
10
160.3875
20
-73.675
11
172.9875
21
-73.675
0
LINE
8
0
10
159.3875
20
-60.675
11
159.3875
21
-72.675
0
LINE
8
0
10
173.9875
20
-60.675
11
173.9875
21
-72.675
0
ARC
8
0
10
160.3875
20
-60.675
40
1
50
90
51
180
0
ARC
8
0
10
172.9875
20
-60.675
40
1
50
0
51
90
0
ARC
8
0
10
160.3875
20
-72.675
40
1
50
180
51
270
0
ARC
8
0
10
172.9875
20
-72.675
40
1
50
270
51
0
0
LINE
8
0
10
179.4375
20
-59.675
11
192.0375
21
-59.675
0
LINE
8
0
10
179.4375
20
-73.675
11
192.0375
21
-73.675
0
LINE
8
0
10
178.4375
20
-60.675
11
178.4375
21
-72.675
0
LINE
8
0
10
193.0375
20
-60.675
11
193.0375
21
-72.675
0
ARC
8
0
10
179.4375
20
-60.675
40
1
50
90
51
180
0
ARC
8
0
10
192.0375
20
-60.675
40
1
50
0
51
90
0
ARC
8
0
10
179.4375
20
-72.675
40
1
50
180
51
270
0
ARC
8
0
10
192.0375
20
-72.675
40
1
50
270
51
0
0
LINE
8
0
10
198.4875
20
-59.675
11
211.0875
21
-59.675
0
LINE
8
0
10
198.4875
20
-73.675
11
211.0875
21
-73.675
0
LINE
8
0
10
197.4875
20
-60.675
11
197.4875
21
-72.675
0
LINE
8
0
10
212.0875
20
-60.675
11
212.0875
21
-72.675
0
ARC
8
0
10
198.4875
20
-60.675
40
1
50
90
51
180
0
ARC
8
0
10
211.0875
20
-60.675
40
1
50
0
51
90
0
ARC
8
0
10
198.4875
20
-72.675
40
1
50
180
51
270
0
ARC
8
0
10
211.0875
20
-72.675
40
1
50
270
51
0
0
LINE
8
0
10
217.5375
20
-59.675
11
230.1375
21
-59.675
0
LINE
8
0
10
217.5375
20
-73.675
11
230.1375
21
-73.675
0
LINE
8
0
10
216.5375
20
-60.675
11
216.5375
21
-72.675
0
LINE
8
0
10
231.1375
20
-60.675
11
231.1375
21
-72.675
0
ARC
8
0
10
217.5375
20
-60.675
40
1
50
90
51
180
0
ARC
8
0
10
230.1375
20
-60.675
40
1
50
0
51
90
0
ARC
8
0
10
217.5375
20
-72.675
40
1
50
180
51
270
0
ARC
8
0
10
230.1375
20
-72.675
40
1
50
270
51
0
0
LINE
8
0
10
243.73125
20
-59.675
11
256.33125
21
-59.675
0
LINE
8
0
10
243.73125
20
-73.675
11
256.33125
21
-73.675
0
LINE
8
0
10
242.73125
20
-60.675
11
242.73125
21
-72.675
0
LINE
8
0
10
257.33125
20
-60.675
11
257.33125
21
-72.675
0
ARC
8
0
10
243.73125
20
-60.675
40
1
50
90
51
180
0
ARC
8
0
10
256.33125
20
-60.675
40
1
50
0
51
90
0
ARC
8
0
10
243.73125
20
-72.675
40
1
50
180
51
270
0
ARC
8
0
10
256.33125
20
-72.675
40
1
50
270
51
0
0
LINE
8
0
10
269.925
20
-59.675
11
282.525
21
-59.675
0
LINE
8
0
10
269.925
20
-73.675
11
282.525
21
-73.675
0
LINE
8
0
10
268.925
20
-60.675
11
268.925
21
-72.675
0
LINE
8
0
10
283.525
20
-60.675
11
283.525
21
-72.675
0
ARC
8
0
10
269.925
20
-60.675
40
1
50
90
51
180
0
ARC
8
0
10
282.525
20
-60.675
40
1
50
0
51
90
0
ARC
8
0
10
269.925
20
-72.675
40
1
50
180
51
270
0
ARC
8
0
10
282.525
20
-72.675
40
1
50
270
51
0
0
LINE
8
0
10
5.60625
20
-78.725
11
18.20625
21
-78.725
0
LINE
8
0
10
5.60625
20
-92.725
11
18.20625
21
-92.725
0
LINE
8
0
10
4.60625
20
-79.725
11
4.60625
21
-91.725
0
LINE
8
0
10
19.20625
20
-79.725
11
19.20625
21
-91.725
0
ARC
8
0
10
5.60625
20
-79.725
40
1
50
90
51
180
0
ARC
8
0
10
18.20625
20
-79.725
40
1
50
0
51
90
0
ARC
8
0
10
5.60625
20
-91.725
40
1
50
180
51
270
0
ARC
8
0
10
18.20625
20
-91.725
40
1
50
270
51
0
0
LINE
8
0
10
29.41875
20
-78.725
11
42.01875
21
-78.725
0
LINE
8
0
10
29.41875
20
-92.725
11
42.01875
21
-92.725
0
LINE
8
0
10
28.41875
20
-79.725
11
28.41875
21
-91.725
0
LINE
8
0
10
43.01875
20
-79.725
11
43.01875
21
-91.725
0
ARC
8
0
10
29.41875
20
-79.725
40
1
50
90
51
180
0
ARC
8
0
10
42.01875
20
-79.725
40
1
50
0
51
90
0
ARC
8
0
10
29.41875
20
-91.725
40
1
50
180
51
270
0
ARC
8
0
10
42.01875
20
-91.725
40
1
50
270
51
0
0
LINE
8
0
10
53.23125
20
-78.725
11
65.83125
21
-78.725
0
LINE
8
0
10
53.23125
20
-92.725
11
65.83125
21
-92.725
0
LINE
8
0
10
52.23125
20
-79.725
11
52.23125
21
-91.725
0
LINE
8
0
10
66.83125
20
-79.725
11
66.83125
21
-91.725
0
ARC
8
0
10
53.23125
20
-79.725
40
1
50
90
51
180
0
ARC
8
0
10
65.83125
20
-79.725
40
1
50
0
51
90
0
ARC
8
0
10
53.23125
20
-91.725
40
1
50
180
51
270
0
ARC
8
0
10
65.83125
20
-91.725
40
1
50
270
51
0
0
LINE
8
0
10
124.66875
20
-78.725
11
137.26875
21
-78.725
0
LINE
8
0
10
124.66875
20
-92.725
11
137.26875
21
-92.725
0
LINE
8
0
10
123.66875
20
-79.725
11
123.66875
21
-91.725
0
LINE
8
0
10
138.26875
20
-79.725
11
138.26875
21
-91.725
0
ARC
8
0
10
124.66875
20
-79.725
40
1
50
90
51
180
0
ARC
8
0
10
137.26875
20
-79.725
40
1
50
0
51
90
0
ARC
8
0
10
124.66875
20
-91.725
40
1
50
180
51
270
0
ARC
8
0
10
137.26875
20
-91.725
40
1
50
270
51
0
0
LINE
8
0
10
193.725
20
-78.725
11
206.325
21
-78.725
0
LINE
8
0
10
193.725
20
-92.725
11
206.325
21
-92.725
0
LINE
8
0
10
192.725
20
-79.725
11
192.725
21
-91.725
0
LINE
8
0
10
207.325
20
-79.725
11
207.325
21
-91.725
0
ARC
8
0
10
193.725
20
-79.725
40
1
50
90
51
180
0
ARC
8
0
10
206.325
20
-79.725
40
1
50
0
51
90
0
ARC
8
0
10
193.725
20
-91.725
40
1
50
180
51
270
0
ARC
8
0
10
206.325
20
-91.725
40
1
50
270
51
0
0
LINE
8
0
10
212.775
20
-78.725
11
225.375
21
-78.725
0
LINE
8
0
10
212.775
20
-92.725
11
225.375
21
-92.725
0
LINE
8
0
10
211.775
20
-79.725
11
211.775
21
-91.725
0
LINE
8
0
10
226.375
20
-79.725
11
226.375
21
-91.725
0
ARC
8
0
10
212.775
20
-79.725
40
1
50
90
51
180
0
ARC
8
0
10
225.375
20
-79.725
40
1
50
0
51
90
0
ARC
8
0
10
212.775
20
-91.725
40
1
50
180
51
270
0
ARC
8
0
10
225.375
20
-91.725
40
1
50
270
51
0
0
LINE
8
0
10
231.825
20
-78.725
11
244.425
21
-78.725
0
LINE
8
0
10
231.825
20
-92.725
11
244.425
21
-92.725
0
LINE
8
0
10
230.825
20
-79.725
11
230.825
21
-91.725
0
LINE
8
0
10
245.425
20
-79.725
11
245.425
21
-91.725
0
ARC
8
0
10
231.825
20
-79.725
40
1
50
90
51
180
0
ARC
8
0
10
244.425
20
-79.725
40
1
50
0
51
90
0
ARC
8
0
10
231.825
20
-91.725
40
1
50
180
51
270
0
ARC
8
0
10
244.425
20
-91.725
40
1
50
270
51
0
0
LINE
8
0
10
250.875
20
-78.725
11
263.475
21
-78.725
0
LINE
8
0
10
250.875
20
-92.725
11
263.475
21
-92.725
0
LINE
8
0
10
249.875
20
-79.725
11
249.875
21
-91.725
0
LINE
8
0
10
264.475
20
-79.725
11
264.475
21
-91.725
0
ARC
8
0
10
250.875
20
-79.725
40
1
50
90
51
180
0
ARC
8
0
10
263.475
20
-79.725
40
1
50
0
51
90
0
ARC
8
0
10
250.875
20
-91.725
40
1
50
180
51
270
0
ARC
8
0
10
263.475
20
-91.725
40
1
50
270
51
0
0
LINE
8
0
10
269.925
20
-78.725
11
282.525
21
-78.725
0
LINE
8
0
10
269.925
20
-92.725
11
282.525
21
-92.725
0
LINE
8
0
10
268.925
20
-79.725
11
268.925
21
-91.725
0
LINE
8
0
10
283.525
20
-79.725
11
283.525
21
-91.725
0
ARC
8
0
10
269.925
20
-79.725
40
1
50
90
51
180
0
ARC
8
0
10
282.525
20
-79.725
40
1
50
0
51
90
0
ARC
8
0
10
269.925
20
-91.725
40
1
50
180
51
270
0
ARC
8
0
10
282.525
20
-91.725
40
1
50
270
51
0
0
LINE
8
0
10
0
20
-95.25
11
285.75
21
-95.25
0
LINE
8
0
10
0
20
0
11
285.75
21
0
0
LINE
8
0
10
0
20
-95.25
11
0
21
0
0
LINE
8
0
10
285.75
20
-95.25
11
285.75
21
0
0
ENDSEC
0
EOF