0
SECTION
2
HEADER
9
$INSUNITS
70
4
0
ENDSEC
0
SECTION
2
TABLES
0
TABLE
2
LTYPE
0
LTYPE
72
65
70
64
2
CONTINUOUS
3
______
73
0
40
0
0
ENDTAB
0
TABLE
2
LAYER
0
ENDTAB
0
ENDSEC
0
SECTION
2
ENTITIES
0
LINE
8
0
10
260.4
20
-2.525
11
273
21
-2.525
0
LINE
8
0
10
260.4
20
-16.525
11
273
21
-16.525
0
LINE
8
0
10
259.4
20
-3.525
11
259.4
21
-15.525
0
LINE
8
0
10
274
20
-3.525
11
274
21
-15.525
0
ARC
8
0
10
260.4
20
-3.525
40
1
50
90
51
180
0
ARC
8
0
10
273
20
-3.525
40
1
50
0
51
90
0
ARC
8
0
10
260.4
20
-15.525
40
1
50
180
51
270
0
ARC
8
0
10
273
20
-15.525
40
1
50
270
51
0
0
LINE
8
0
10
280.84375
20
-31.8
11
280.84375
21
-44.4
0
LINE
8
0
10
266.84375
20
-31.8
11
266.84375
21
-44.4
0
LINE
8
0
10
279.84375
20
-30.8
11
267.84375
21
-30.8
0
LINE
8
0
10
279.84375
20
-45.4
11
267.84375
21
-45.4
0
ARC
8
0
10
279.84375
20
-31.8
40
1
50
0
51
90
0
ARC
8
0
10
279.84375
20
-44.4
40
1
50
270
51
0
0
ARC
8
0
10
267.84375
20
-31.8
40
1
50
90
51
180
0
ARC
8
0
10
267.84375
20
-44.4
40
1
50
180
51
270
0
LINE
8
0
10
246.1125
20
-40.625
11
258.7125
21
-40.625
0
LINE
8
0
10
246.1125
20
-54.625
11
258.7125
21
-54.625
0
LINE
8
0
10
245.1125
20
-41.625
11
245.1125
21
-53.625
0
LINE
8
0
10
259.7125
20
-41.625
11
259.7125
21
-53.625
0
ARC
8
0
10
246.1125
20
-41.625
40
1
50
90
51
180
0
ARC
8
0
10
258.7125
20
-41.625
40
1
50
0
51
90
0
ARC
8
0
10
246.1125
20
-53.625
40
1
50
180
51
270
0
ARC
8
0
10
258.7125
20
-53.625
40
1
50
270
51
0
0
LINE
8
0
10
5.60625
20
-78.725
11
18.20625
21
-78.725
0
LINE
8
0
10
5.60625
20
-92.725
11
18.20625
21
-92.725
0
LINE
8
0
10
4.60625
20
-79.725
11
4.60625
21
-91.725
0
LINE
8
0
10
19.20625
20
-79.725
11
19.20625
21
-91.725
0
ARC
8
0
10
5.60625
20
-79.725
40
1
50
90
51
180
0
ARC
8
0
10
18.20625
20
-79.725
40
1
50
0
51
90
0
ARC
8
0
10
5.60625
20
-91.725
40
1
50
180
51
270
0
ARC
8
0
10
18.20625
20
-91.725
40
1
50
270
51
0
0
LINE
8
0
10
0
20
-95.25
11
285.75
21
-95.25
0
LINE
8
0
10
0
20
0
11
285.75
21
0
0
LINE
8
0
10
0
20
-95.25
11
0
21
0
0
LINE
8
0
10
285.75
20
-95.25
11
285.75
21
0
0
ENDSEC
0
EOF